<?xml version="1.0" encoding="UTF-8"?>
<svg xmlns="http://www.w3.org/2000/svg" xmlns:xlink="http://www.w3.org/1999/xlink" width="80px" height="86px" viewBox="0 0 80 85" version="1.1">
<g id="surface1">
<path style=" stroke:none;fill-rule:nonzero;fill:rgb(40.784314%,73.333335%,85.09804%);fill-opacity:1;" d="M 46.644531 85.121094 C 31.097656 85.121094 15.609375 85.121094 0.125 85.121094 C 0.125 56.789062 0.125 28.457031 0.125 0.121094 C 26.789062 0.121094 53.457031 0.121094 80.125 0.121094 C 80.125 28.457031 80.125 56.789062 80.125 85.121094 C 68.984375 85.121094 57.847656 85.121094 46.644531 85.121094 M 15.101562 44.832031 C 14.1875 44.691406 14.140625 44.652344 14.15625 43.777344 C 14.164062 43.292969 14.28125 42.804688 14.242188 42.328125 C 14.117188 40.769531 13.628906 39.300781 12.925781 37.910156 C 12.195312 36.464844 11.363281 35.070312 10.203125 33.925781 C 9.164062 32.902344 8.0625 31.941406 6.929688 31.023438 C 6.652344 30.796875 6.082031 30.6875 5.769531 30.816406 C 5.457031 30.945312 5.101562 31.433594 5.101562 31.765625 C 5.101562 32.863281 5.261719 33.960938 5.347656 35.058594 C 5.40625 35.765625 5.464844 36.46875 5.484375 37.175781 C 5.535156 39.019531 5.558594 40.863281 5.597656 42.707031 C 5.613281 43.441406 5.664062 44.175781 5.652344 44.910156 C 5.648438 45.0625 5.433594 45.339844 5.328125 45.335938 C 4.332031 45.277344 3.46875 45.707031 2.667969 46.15625 C 2.1875 46.429688 1.730469 46.996094 1.582031 47.519531 C 1.378906 48.246094 1.75 49.011719 2.28125 49.523438 C 3.925781 51.109375 5.84375 52.0625 8.234375 51.757812 C 9.265625 51.625 10.285156 51.535156 10.988281 52.5625 C 11.378906 53.125 11.796875 53.675781 12.257812 54.179688 C 13.367188 55.382812 14.5 56.566406 15.644531 57.742188 C 15.914062 58.019531 15.914062 58.175781 15.59375 58.40625 C 14.917969 58.886719 14.25 59.390625 13.605469 59.914062 C 12.820312 60.554688 12.601562 61.21875 13.085938 62.011719 C 13.355469 62.453125 13.886719 62.785156 14.371094 63.046875 C 15.550781 63.691406 16.878906 64.054688 18.191406 63.945312 C 19.402344 63.84375 20.574219 63.3125 21.773438 63.011719 C 22.046875 62.941406 22.40625 62.972656 22.660156 63.09375 C 23.761719 63.628906 24.65625 64.566406 25.964844 64.710938 C 26.261719 64.746094 26.339844 64.953125 26.253906 65.296875 C 25.792969 67.15625 25.285156 69.011719 24.984375 70.898438 C 24.765625 72.261719 24.398438 73.65625 24.777344 75.066406 C 24.910156 75.566406 24.929688 76.113281 25.140625 76.578125 C 25.53125 77.429688 26.101562 77.992188 27.21875 77.914062 C 28.667969 77.808594 29.925781 77.179688 31.210938 76.664062 C 32.636719 76.089844 33.953125 75.25 35.34375 74.582031 C 37.546875 73.523438 39.484375 72.078125 41.4375 70.648438 C 41.605469 70.527344 41.828125 70.417969 42.03125 70.410156 C 42.707031 70.378906 43.382812 70.398438 44.058594 70.398438 C 45.019531 70.394531 46.003906 70.511719 46.945312 70.359375 C 48.945312 70.03125 50.925781 69.59375 52.90625 69.152344 C 54.15625 68.875 55.386719 68.519531 56.617188 68.171875 C 57.046875 68.054688 57.453125 67.863281 57.867188 67.703125 C 59.003906 67.265625 60.144531 66.855469 61.265625 66.386719 C 61.902344 66.121094 62.492188 65.742188 63.125 65.464844 C 63.339844 65.371094 63.691406 65.339844 63.863281 65.453125 C 64.789062 66.070312 65.683594 66.738281 66.582031 67.398438 C 68.050781 68.476562 69.496094 69.589844 70.988281 70.640625 C 71.886719 71.269531 72.851562 71.183594 73.585938 70.390625 C 74.0625 69.878906 74.488281 69.277344 74.777344 68.644531 C 75.265625 67.566406 75.714844 66.457031 76.019531 65.316406 C 76.277344 64.351562 76.339844 63.332031 76.425781 62.328125 C 76.511719 61.34375 76.65625 60.332031 76.519531 59.371094 C 76.242188 57.402344 75.792969 55.460938 75.421875 53.507812 C 75.398438 53.382812 75.449219 53.238281 75.496094 53.109375 C 76.058594 51.511719 76.722656 49.945312 77.171875 48.316406 C 77.632812 46.65625 77.910156 44.945312 78.210938 43.246094 C 78.371094 42.355469 78.433594 41.445312 78.496094 40.539062 C 78.578125 39.371094 78.683594 38.199219 78.660156 37.03125 C 78.640625 35.746094 78.511719 34.457031 78.382812 33.175781 C 78.269531 32.078125 78.15625 30.972656 77.921875 29.894531 C 77.699219 28.875 77.402344 27.859375 76.992188 26.898438 C 76.5 25.746094 75.917969 24.519531 74.683594 24.019531 C 73.300781 23.460938 71.832031 22.964844 70.363281 22.796875 C 68.304688 22.5625 66.210938 22.515625 64.132812 22.867188 C 62.722656 23.105469 61.289062 23.214844 59.871094 23.414062 C 58.964844 23.542969 58.0625 23.695312 57.171875 23.902344 C 55.96875 24.179688 54.773438 24.507812 53.578125 24.828125 C 52.230469 25.1875 50.839844 25.449219 49.542969 25.945312 C 47.417969 26.753906 45.214844 27.371094 43.195312 28.457031 C 42.070312 29.066406 40.878906 29.550781 39.71875 30.085938 C 39.597656 30.140625 39.445312 30.214844 39.335938 30.1875 C 38.257812 29.90625 37.191406 29.582031 36.113281 29.308594 C 34.414062 28.875 32.699219 28.511719 30.925781 28.609375 C 30.277344 28.644531 29.625 28.691406 28.984375 28.789062 C 27.820312 28.96875 26.636719 29.089844 25.515625 29.414062 C 24.039062 29.84375 23.621094 31.417969 24.285156 32.832031 C 25.035156 34.429688 25.609375 36.113281 26.214844 37.773438 C 26.644531 38.953125 26.785156 40.199219 26.871094 41.441406 C 26.941406 42.453125 27.074219 43.527344 26.046875 44.195312 C 25.265625 44.707031 24.332031 44.667969 23.515625 44.375 C 22.429688 43.984375 21.394531 43.445312 20.378906 42.894531 C 19.5 42.417969 18.328125 42.367188 17.605469 42.96875 C 17.089844 43.394531 16.597656 43.867188 16.191406 44.394531 C 15.910156 44.757812 15.628906 44.890625 15.101562 44.832031 M 72.125 10.167969 C 71.492188 9.734375 70.890625 9.230469 70.207031 8.898438 C 69.683594 8.640625 69.046875 8.480469 68.464844 8.496094 C 67.730469 8.515625 66.96875 8.671875 66.273438 8.925781 C 65.4375 9.230469 64.640625 9.660156 63.867188 10.109375 C 62.972656 10.632812 62.664062 11.601562 62.46875 12.492188 C 62.285156 13.328125 62.308594 14.277344 62.527344 15.105469 C 62.71875 15.828125 63.261719 16.480469 63.734375 17.101562 C 64.960938 18.722656 67.0625 19.324219 68.917969 18.925781 C 70.253906 18.636719 71.308594 17.828125 72.097656 16.683594 C 72.726562 15.773438 73.195312 14.804688 73.34375 13.710938 C 73.523438 12.375 73.136719 11.207031 72.125 10.167969 M 20.316406 38.292969 C 20.535156 37.613281 21.050781 36.871094 20.921875 36.265625 C 20.546875 34.503906 19.554688 33.539062 17.414062 34.136719 C 16.933594 34.269531 16.527344 34.710938 16.113281 35.042969 C 15.003906 35.933594 14.988281 37.707031 15.957031 38.597656 C 17.289062 39.828125 18.800781 39.707031 20.316406 38.292969 M 57.882812 17.003906 C 56.957031 17.417969 56.652344 18.28125 56.648438 19.136719 C 56.644531 20.152344 57.332031 20.785156 58.332031 21.09375 C 59.234375 21.375 60.023438 21.1875 60.824219 20.75 C 61.464844 20.398438 62.148438 19.464844 62.132812 18.792969 C 62.117188 18.089844 61.453125 17.316406 60.734375 16.972656 C 59.792969 16.523438 58.894531 16.40625 57.882812 17.003906 M 12.855469 30.820312 C 13.011719 31.378906 13.527344 31.449219 13.972656 31.613281 C 15.113281 32.03125 15.832031 31.765625 16.878906 30.535156 C 17.246094 30.101562 17.210938 29.003906 16.804688 28.300781 C 16.421875 27.640625 15.671875 27.351562 15.113281 27.613281 C 14.835938 27.738281 14.523438 27.824219 14.21875 27.855469 C 13.667969 27.917969 13.160156 28.050781 12.859375 28.539062 C 12.417969 29.253906 12.359375 29.996094 12.855469 30.820312 M 6.558594 57.339844 C 6.574219 58.828125 7.746094 59.625 8.761719 59.375 C 10.15625 59.03125 11.265625 58.148438 10.945312 56.367188 C 10.820312 55.691406 10.351562 55.25 9.761719 55.007812 C 9.210938 54.785156 8.636719 54.816406 8.234375 55.386719 C 8.179688 55.46875 8.042969 55.523438 7.9375 55.539062 C 7.25 55.660156 6.859375 56.050781 6.746094 56.730469 C 6.714844 56.90625 6.636719 57.074219 6.558594 57.339844 Z M 6.558594 57.339844 "/>
<path style=" stroke:none;fill-rule:nonzero;fill:rgb(15.686275%,31.37255%,43.921569%);fill-opacity:1;" d="M 15.15625 44.832031 C 15.628906 44.890625 15.910156 44.757812 16.191406 44.394531 C 16.597656 43.867188 17.089844 43.394531 17.605469 42.96875 C 18.328125 42.367188 19.5 42.417969 20.378906 42.894531 C 21.394531 43.445312 22.429688 43.984375 23.515625 44.375 C 24.332031 44.667969 25.265625 44.707031 26.046875 44.195312 C 27.074219 43.527344 26.941406 42.453125 26.871094 41.441406 C 26.785156 40.199219 26.644531 38.953125 26.214844 37.773438 C 25.609375 36.113281 25.035156 34.429688 24.285156 32.832031 C 23.621094 31.417969 24.039062 29.84375 25.515625 29.414062 C 26.636719 29.089844 27.820312 28.96875 28.984375 28.789062 C 29.625 28.691406 30.277344 28.644531 30.925781 28.609375 C 32.699219 28.511719 34.414062 28.875 36.113281 29.308594 C 37.191406 29.582031 38.257812 29.90625 39.335938 30.1875 C 39.445312 30.214844 39.597656 30.140625 39.71875 30.085938 C 40.878906 29.550781 42.070312 29.066406 43.195312 28.457031 C 45.214844 27.371094 47.417969 26.753906 49.542969 25.945312 C 50.839844 25.449219 52.230469 25.1875 53.578125 24.828125 C 54.773438 24.507812 55.96875 24.179688 57.171875 23.902344 C 58.0625 23.695312 58.964844 23.542969 59.871094 23.414062 C 61.289062 23.214844 62.722656 23.105469 64.132812 22.867188 C 66.210938 22.515625 68.304688 22.5625 70.363281 22.796875 C 71.832031 22.964844 73.300781 23.460938 74.683594 24.019531 C 75.917969 24.519531 76.5 25.746094 76.992188 26.898438 C 77.402344 27.859375 77.699219 28.875 77.921875 29.894531 C 78.15625 30.972656 78.269531 32.078125 78.382812 33.175781 C 78.511719 34.457031 78.640625 35.746094 78.660156 37.03125 C 78.683594 38.199219 78.578125 39.371094 78.496094 40.539062 C 78.433594 41.445312 78.371094 42.355469 78.210938 43.246094 C 77.910156 44.945312 77.632812 46.65625 77.171875 48.316406 C 76.722656 49.945312 76.058594 51.511719 75.496094 53.109375 C 75.449219 53.238281 75.398438 53.382812 75.421875 53.507812 C 75.792969 55.460938 76.242188 57.402344 76.519531 59.371094 C 76.65625 60.332031 76.511719 61.34375 76.425781 62.328125 C 76.339844 63.332031 76.277344 64.351562 76.019531 65.316406 C 75.714844 66.457031 75.265625 67.566406 74.777344 68.644531 C 74.488281 69.277344 74.0625 69.878906 73.585938 70.390625 C 72.851562 71.183594 71.886719 71.269531 70.988281 70.640625 C 69.496094 69.589844 68.050781 68.476562 66.582031 67.398438 C 65.683594 66.738281 64.789062 66.070312 63.863281 65.453125 C 63.691406 65.339844 63.339844 65.371094 63.125 65.464844 C 62.492188 65.742188 61.902344 66.121094 61.265625 66.386719 C 60.144531 66.855469 59.003906 67.265625 57.867188 67.703125 C 57.453125 67.863281 57.046875 68.054688 56.617188 68.171875 C 55.386719 68.519531 54.15625 68.875 52.90625 69.152344 C 50.925781 69.59375 48.945312 70.03125 46.945312 70.359375 C 46.003906 70.511719 45.019531 70.394531 44.058594 70.398438 C 43.382812 70.398438 42.707031 70.378906 42.03125 70.410156 C 41.828125 70.417969 41.605469 70.527344 41.4375 70.648438 C 39.484375 72.078125 37.546875 73.523438 35.34375 74.582031 C 33.953125 75.25 32.636719 76.089844 31.210938 76.664062 C 29.925781 77.179688 28.667969 77.808594 27.21875 77.914062 C 26.101562 77.992188 25.53125 77.429688 25.140625 76.578125 C 24.929688 76.113281 24.910156 75.566406 24.777344 75.066406 C 24.398438 73.65625 24.765625 72.261719 24.984375 70.898438 C 25.285156 69.011719 25.792969 67.15625 26.253906 65.296875 C 26.339844 64.953125 26.261719 64.746094 25.964844 64.710938 C 24.65625 64.566406 23.761719 63.628906 22.660156 63.09375 C 22.40625 62.972656 22.046875 62.941406 21.773438 63.011719 C 20.574219 63.3125 19.402344 63.84375 18.191406 63.945312 C 16.878906 64.054688 15.550781 63.691406 14.371094 63.046875 C 13.886719 62.785156 13.355469 62.453125 13.085938 62.011719 C 12.601562 61.21875 12.820312 60.554688 13.605469 59.914062 C 14.25 59.390625 14.917969 58.886719 15.59375 58.40625 C 15.914062 58.175781 15.914062 58.019531 15.644531 57.742188 C 14.5 56.566406 13.367188 55.382812 12.257812 54.179688 C 11.796875 53.675781 11.378906 53.125 10.988281 52.5625 C 10.285156 51.535156 9.265625 51.625 8.234375 51.757812 C 5.84375 52.0625 3.925781 51.109375 2.28125 49.523438 C 1.75 49.011719 1.378906 48.246094 1.582031 47.519531 C 1.730469 46.996094 2.1875 46.429688 2.667969 46.15625 C 3.46875 45.707031 4.332031 45.277344 5.328125 45.335938 C 5.433594 45.339844 5.648438 45.0625 5.652344 44.910156 C 5.664062 44.175781 5.613281 43.441406 5.597656 42.707031 C 5.558594 40.863281 5.535156 39.019531 5.484375 37.175781 C 5.464844 36.46875 5.40625 35.765625 5.347656 35.058594 C 5.261719 33.960938 5.101562 32.863281 5.101562 31.765625 C 5.101562 31.433594 5.457031 30.945312 5.769531 30.816406 C 6.082031 30.6875 6.652344 30.796875 6.929688 31.023438 C 8.0625 31.941406 9.164062 32.902344 10.203125 33.925781 C 11.363281 35.070312 12.195312 36.464844 12.925781 37.910156 C 13.628906 39.300781 14.117188 40.769531 14.242188 42.328125 C 14.28125 42.804688 14.164062 43.292969 14.15625 43.777344 C 14.140625 44.652344 14.1875 44.691406 15.15625 44.832031 M 27.097656 63.023438 C 27.625 63.207031 28.148438 63.386719 28.695312 63.667969 C 28.679688 63.765625 28.675781 63.867188 28.652344 63.960938 C 28.199219 65.707031 27.722656 67.445312 27.300781 69.195312 C 27.070312 70.152344 26.976562 71.140625 26.742188 72.09375 C 26.453125 73.285156 26.566406 74.457031 26.785156 75.628906 C 26.847656 75.953125 27.050781 76.148438 27.40625 76.015625 C 28.125 75.75 28.828125 75.433594 29.554688 75.199219 C 31.902344 74.445312 34.050781 73.277344 36.121094 71.992188 C 37.691406 71.019531 39.15625 69.890625 40.664062 68.828125 C 40.941406 68.632812 41.203125 68.421875 41.472656 68.304688 C 41.699219 68.472656 41.929688 68.78125 42.15625 68.78125 C 42.75 68.78125 43.34375 68.648438 44.039062 68.570312 C 44.582031 68.574219 45.121094 68.574219 45.71875 68.621094 C 45.824219 68.589844 45.929688 68.558594 46.121094 68.503906 C 46.242188 68.511719 46.363281 68.515625 46.59375 68.550781 C 46.988281 68.488281 47.378906 68.421875 47.855469 68.304688 C 48.222656 68.257812 48.589844 68.214844 49.066406 68.1875 C 49.496094 68.082031 49.925781 67.976562 50.457031 67.859375 C 51.078125 67.6875 51.691406 67.417969 52.324219 67.367188 C 53.882812 67.242188 55.242188 66.5 56.707031 66.082031 C 57.304688 65.914062 57.890625 65.710938 58.476562 65.5 C 59.113281 65.269531 59.769531 65.066406 60.375 64.761719 C 61.488281 64.203125 62.570312 63.578125 63.75 62.976562 C 64.15625 62.757812 64.378906 63.066406 64.625 63.289062 C 64.90625 63.539062 65.179688 63.796875 65.472656 64.140625 C 65.566406 64.257812 65.644531 64.40625 65.761719 64.492188 C 66.484375 65.011719 67.230469 65.503906 67.941406 66.035156 C 69.164062 66.953125 70.382812 67.871094 71.574219 68.828125 C 72.0625 69.21875 72.308594 69.042969 72.585938 68.609375 C 73.238281 67.589844 73.832031 66.542969 74.023438 65.335938 C 74.253906 63.871094 74.597656 62.394531 74.597656 60.925781 C 74.601562 59.234375 74.277344 57.539062 74.085938 55.714844 C 73.859375 55.894531 73.800781 55.941406 73.738281 55.875 C 73.542969 55.128906 73.347656 54.386719 73.15625 53.582031 C 73.167969 53.542969 73.175781 53.503906 73.257812 53.417969 C 73.28125 53.34375 73.308594 53.269531 73.355469 53.105469 C 73.539062 52.683594 73.722656 52.265625 73.898438 51.839844 C 74.367188 50.710938 74.910156 49.605469 75.269531 48.441406 C 75.628906 47.285156 75.878906 46.082031 76.039062 44.878906 C 76.320312 42.789062 76.609375 40.6875 76.6875 38.585938 C 76.792969 35.621094 76.699219 32.667969 75.859375 29.765625 C 75.515625 28.585938 75.140625 27.445312 74.546875 26.371094 C 74.28125 25.890625 73.890625 25.605469 73.289062 25.523438 C 72.921875 25.375 72.5625 25.167969 72.179688 25.089844 C 71.054688 24.863281 69.921875 24.582031 68.78125 24.515625 C 67.679688 24.453125 66.5625 24.617188 65.457031 24.703125 C 64.238281 24.800781 63.015625 24.898438 61.804688 25.050781 C 60.519531 25.210938 59.222656 25.351562 57.96875 25.652344 C 55.390625 26.269531 52.816406 26.925781 50.277344 27.683594 C 48.59375 28.183594 46.9375 28.800781 45.339844 29.519531 C 43.59375 30.300781 41.917969 31.25 40.226562 32.148438 C 39.535156 32.515625 39.191406 32.507812 38.578125 32.003906 C 38.488281 31.929688 38.386719 31.839844 38.277344 31.8125 C 36.628906 31.40625 34.992188 30.808594 33.320312 30.667969 C 31.421875 30.503906 29.488281 30.746094 27.496094 30.804688 C 27.4375 30.847656 27.378906 30.886719 27.238281 30.917969 C 27.097656 30.984375 26.957031 31.054688 26.714844 31.121094 C 25.929688 31.21875 25.785156 31.398438 26.058594 32.113281 C 26.300781 32.738281 26.664062 33.320312 26.914062 33.949219 C 27.664062 35.832031 28.34375 37.746094 28.640625 39.753906 C 28.792969 40.789062 28.800781 41.859375 28.734375 42.90625 C 28.695312 43.550781 28.390625 44.183594 28.132812 44.863281 C 27.238281 45.921875 26.140625 46.542969 24.703125 46.4375 C 24.058594 46.386719 23.417969 46.316406 22.726562 46.1875 C 21.695312 45.683594 20.675781 45.15625 19.632812 44.683594 C 19.367188 44.5625 18.90625 44.457031 18.738281 44.59375 C 18.105469 45.097656 17.558594 45.703125 16.910156 46.285156 C 16.851562 46.320312 16.792969 46.355469 16.660156 46.402344 C 16.597656 46.476562 16.535156 46.554688 16.382812 46.640625 C 16.050781 46.6875 15.707031 46.800781 15.378906 46.769531 C 14.554688 46.695312 13.738281 46.535156 12.914062 46.453125 C 11.988281 46.355469 11.679688 45.878906 11.886719 44.953125 C 12.082031 44.074219 12.222656 43.179688 12.308594 42.285156 C 12.347656 41.902344 12.226562 41.492188 12.113281 41.113281 C 11.875 40.332031 11.6875 39.515625 11.308594 38.804688 C 10.601562 37.476562 9.746094 36.230469 8.695312 35.128906 C 8.25 34.664062 7.777344 34.226562 7.214844 33.675781 C 7.160156 33.980469 7.121094 34.078125 7.128906 34.171875 C 7.230469 35.472656 7.335938 36.773438 7.445312 38.074219 C 7.503906 38.769531 7.605469 39.460938 7.617188 40.15625 C 7.628906 40.746094 7.503906 41.335938 7.492188 41.925781 C 7.476562 43 7.105469 44.136719 8.128906 45.039062 C 8.339844 45.226562 8.3125 45.710938 8.335938 46.0625 C 8.355469 46.332031 8.285156 46.609375 8.171875 46.9375 C 7.539062 47.015625 6.902344 47.074219 6.277344 47.179688 C 5.484375 47.316406 4.695312 47.46875 3.914062 47.667969 C 3.554688 47.757812 3.5 48.023438 3.789062 48.300781 C 4.714844 49.191406 5.773438 49.835938 7.105469 49.871094 C 8.429688 49.90625 9.75 49.894531 11.121094 49.976562 C 12.089844 51.09375 13.019531 52.25 14.035156 53.320312 C 15.261719 54.617188 16.539062 55.875 17.847656 57.089844 C 18.375 57.582031 18.585938 57.9375 18.382812 58.640625 C 18.351562 58.734375 18.34375 58.835938 18.242188 58.960938 C 17.214844 59.722656 15.988281 60.230469 15.0625 61.195312 C 17.167969 62.5 20.257812 62.097656 22.292969 60.609375 C 22.375 60.589844 22.457031 60.570312 22.5625 60.636719 C 23.550781 61.292969 24.507812 61.992188 25.53125 62.589844 C 25.953125 62.835938 26.507812 62.859375 27.097656 63.023438 Z M 27.097656 63.023438 "/>
<path style=" stroke:none;fill-rule:nonzero;fill:rgb(14.901961%,30.980393%,43.529412%);fill-opacity:1;" d="M 72.148438 10.203125 C 73.136719 11.207031 73.523438 12.375 73.34375 13.710938 C 73.195312 14.804688 72.726562 15.773438 72.097656 16.683594 C 71.308594 17.828125 70.253906 18.636719 68.917969 18.925781 C 67.0625 19.324219 64.960938 18.722656 63.734375 17.101562 C 63.261719 16.480469 62.71875 15.828125 62.527344 15.105469 C 62.308594 14.277344 62.285156 13.328125 62.46875 12.492188 C 62.664062 11.601562 62.972656 10.632812 63.867188 10.109375 C 64.640625 9.660156 65.4375 9.230469 66.273438 8.925781 C 66.96875 8.671875 67.730469 8.515625 68.464844 8.496094 C 69.046875 8.480469 69.683594 8.640625 70.207031 8.898438 C 70.890625 9.230469 71.492188 9.734375 72.148438 10.203125 M 68.910156 17.054688 C 69.121094 16.933594 69.332031 16.8125 69.628906 16.679688 C 70.074219 16.183594 70.597656 15.734375 70.945312 15.179688 C 71.421875 14.414062 71.828125 13.554688 71.554688 12.625 C 71.214844 11.460938 69.800781 10.175781 68.453125 10.273438 C 67.625 10.332031 66.824219 10.726562 66.003906 10.945312 C 64.488281 11.355469 63.921875 12.648438 64.117188 13.976562 C 64.316406 15.34375 65.089844 16.382812 66.347656 16.964844 C 67.121094 17.320312 67.980469 17.511719 68.910156 17.054688 Z M 68.910156 17.054688 "/>
<path style=" stroke:none;fill-rule:nonzero;fill:rgb(14.117648%,30.980393%,43.529412%);fill-opacity:1;" d="M 20.300781 38.335938 C 18.800781 39.707031 17.289062 39.828125 15.957031 38.597656 C 14.988281 37.707031 15.003906 35.933594 16.113281 35.042969 C 16.527344 34.710938 16.933594 34.269531 17.414062 34.136719 C 19.554688 33.539062 20.546875 34.503906 20.921875 36.265625 C 21.050781 36.871094 20.535156 37.613281 20.300781 38.335938 M 19.179688 36.390625 C 18.726562 35.613281 18.519531 35.511719 17.675781 35.820312 C 17.140625 36.019531 17.046875 36.523438 17.140625 37.003906 C 17.179688 37.210938 17.445312 37.476562 17.65625 37.53125 C 18.21875 37.675781 19.035156 37.074219 19.179688 36.390625 Z M 19.179688 36.390625 "/>
<path style=" stroke:none;fill-rule:nonzero;fill:rgb(14.117648%,30.588236%,43.137255%);fill-opacity:1;" d="M 57.925781 16.980469 C 58.894531 16.40625 59.792969 16.523438 60.734375 16.972656 C 61.453125 17.316406 62.117188 18.089844 62.132812 18.792969 C 62.148438 19.464844 61.464844 20.398438 60.824219 20.75 C 60.023438 21.1875 59.234375 21.375 58.332031 21.09375 C 57.332031 20.785156 56.644531 20.152344 56.648438 19.136719 C 56.652344 18.28125 56.957031 17.417969 57.925781 16.980469 M 59.628906 18.492188 C 59.433594 18.457031 59.238281 18.414062 59.042969 18.382812 C 58.671875 18.324219 58.476562 18.578125 58.476562 18.855469 C 58.472656 19.03125 58.691406 19.277344 58.875 19.378906 C 59.507812 19.734375 59.914062 19.335938 60.386719 18.835938 C 60.125 18.710938 59.925781 18.617188 59.628906 18.492188 Z M 59.628906 18.492188 "/>
<path style=" stroke:none;fill-rule:nonzero;fill:rgb(14.117648%,30.588236%,43.529412%);fill-opacity:1;" d="M 12.824219 30.78125 C 12.359375 29.996094 12.417969 29.253906 12.859375 28.539062 C 13.160156 28.050781 13.667969 27.917969 14.21875 27.855469 C 14.523438 27.824219 14.835938 27.738281 15.113281 27.613281 C 15.671875 27.351562 16.421875 27.640625 16.804688 28.300781 C 17.210938 29.003906 17.246094 30.101562 16.878906 30.535156 C 15.832031 31.765625 15.113281 32.03125 13.972656 31.613281 C 13.527344 31.449219 13.011719 31.378906 12.824219 30.78125 M 14.886719 29 C 14.804688 29.085938 14.6875 29.160156 14.644531 29.261719 C 14.566406 29.445312 14.535156 29.648438 14.484375 29.839844 C 14.671875 29.882812 14.867188 29.976562 15.046875 29.953125 C 15.199219 29.933594 15.328125 29.773438 15.46875 29.679688 C 15.308594 29.445312 15.144531 29.214844 14.886719 29 Z M 14.886719 29 "/>
<path style=" stroke:none;fill-rule:nonzero;fill:rgb(14.509805%,30.980393%,43.529412%);fill-opacity:1;" d="M 6.570312 57.292969 C 6.636719 57.074219 6.714844 56.90625 6.746094 56.730469 C 6.859375 56.050781 7.25 55.660156 7.9375 55.539062 C 8.042969 55.523438 8.179688 55.46875 8.234375 55.386719 C 8.636719 54.816406 9.210938 54.785156 9.761719 55.007812 C 10.351562 55.25 10.820312 55.691406 10.945312 56.367188 C 11.265625 58.148438 10.15625 59.03125 8.761719 59.375 C 7.746094 59.625 6.574219 58.828125 6.570312 57.292969 M 8.550781 57.707031 C 8.78125 57.445312 9.050781 57.203125 9.210938 56.902344 C 9.25 56.832031 8.929688 56.566406 8.742188 56.359375 C 8.578125 56.6875 8.425781 56.902344 8.371094 57.140625 C 8.332031 57.304688 8.425781 57.503906 8.550781 57.707031 Z M 8.550781 57.707031 "/>
<path style=" stroke:none;fill-rule:nonzero;fill:rgb(69.01961%,85.09804%,94.509804%);fill-opacity:1;" d="M 16.738281 46.394531 C 16.792969 46.355469 16.851562 46.320312 16.984375 46.300781 C 17.371094 46.425781 17.691406 46.625 18.003906 46.617188 C 19.421875 46.574219 20.839844 46.480469 22.257812 46.390625 C 22.433594 46.382812 22.601562 46.304688 22.773438 46.257812 C 23.417969 46.316406 24.058594 46.386719 24.703125 46.4375 C 26.140625 46.542969 27.238281 45.921875 28.21875 44.84375 C 28.558594 44.773438 28.878906 44.808594 29.0625 44.667969 C 30.144531 43.820312 31.25 42.992188 32.234375 42.039062 C 32.800781 41.496094 33.304688 40.78125 33.550781 40.046875 C 33.820312 39.246094 33.59375 38.367188 33.0625 37.636719 C 32.839844 37.328125 32.5625 37.054688 32.351562 36.738281 C 31.21875 35.058594 29.820312 33.652344 28.164062 32.476562 C 27.652344 32.113281 27.261719 31.582031 26.8125 31.125 C 26.957031 31.054688 27.097656 30.984375 27.304688 30.941406 C 27.433594 30.914062 27.503906 30.863281 27.570312 30.8125 C 29.488281 30.746094 31.421875 30.503906 33.320312 30.667969 C 34.992188 30.808594 36.628906 31.40625 38.277344 31.8125 C 38.386719 31.839844 38.488281 31.929688 38.578125 32.003906 C 39.191406 32.507812 39.535156 32.515625 40.226562 32.148438 C 41.917969 31.25 43.59375 30.300781 45.339844 29.519531 C 46.9375 28.800781 48.59375 28.183594 50.277344 27.683594 C 52.816406 26.925781 55.390625 26.269531 57.96875 25.652344 C 59.222656 25.351562 60.519531 25.210938 61.804688 25.050781 C 63.015625 24.898438 64.238281 24.800781 65.457031 24.703125 C 66.5625 24.617188 67.679688 24.453125 68.78125 24.515625 C 69.921875 24.582031 71.054688 24.863281 72.179688 25.089844 C 72.5625 25.167969 72.921875 25.375 73.261719 25.597656 C 70.714844 26.539062 68.394531 27.796875 66.308594 29.410156 C 64.722656 30.632812 63.238281 32 61.796875 33.390625 C 60.847656 34.308594 60.03125 35.367188 59.191406 36.394531 C 58.605469 37.109375 58.082031 37.871094 57.5 38.589844 C 57.203125 38.140625 56.945312 37.707031 56.660156 37.289062 C 56.328125 36.804688 55.953125 36.367188 55.304688 36.273438 C 53.503906 36.019531 52.609375 37.296875 52.226562 38.570312 C 52.050781 39.15625 52.066406 39.804688 51.941406 40.425781 C 50.980469 40.207031 50.1875 40.355469 49.5625 41.097656 C 49.503906 41.171875 49.390625 41.203125 49.300781 41.25 C 48.167969 41.859375 47.691406 43.195312 48.222656 44.359375 C 48.308594 44.550781 48.46875 44.753906 48.648438 44.855469 C 49.210938 45.167969 49.753906 45.527344 50.46875 45.4375 C 50.949219 45.375 51.449219 45.421875 51.972656 45.441406 C 52.722656 45.144531 53.441406 44.824219 54.160156 44.503906 C 53.816406 45.21875 53.894531 46.234375 52.640625 46.210938 C 52.675781 46.261719 52.710938 46.308594 52.746094 46.359375 C 52.949219 46.453125 53.15625 46.546875 53.53125 46.71875 C 52.734375 47.625 52.59375 48.753906 52.152344 49.769531 C 52.144531 49.789062 52.117188 49.800781 52.113281 49.820312 C 51.851562 50.675781 51.59375 51.53125 51.332031 52.433594 C 51.054688 53.125 50.792969 53.78125 50.5 54.425781 C 49.96875 55.597656 49.40625 56.753906 48.878906 57.929688 C 48.519531 58.734375 48.257812 59.585938 47.851562 60.367188 C 47.320312 61.386719 46.667969 62.339844 46.117188 63.351562 C 45.902344 63.746094 45.8125 64.210938 45.609375 64.652344 C 45.097656 64.585938 44.722656 64.761719 44.40625 65.078125 C 43.636719 65.855469 42.863281 66.632812 42.105469 67.421875 C 41.871094 67.664062 41.683594 67.949219 41.472656 68.214844 C 41.203125 68.421875 40.941406 68.632812 40.664062 68.828125 C 39.15625 69.890625 37.691406 71.019531 36.121094 71.992188 C 34.050781 73.277344 31.902344 74.445312 29.554688 75.199219 C 28.828125 75.433594 28.125 75.75 27.40625 76.015625 C 27.050781 76.148438 26.847656 75.953125 26.785156 75.628906 C 26.566406 74.457031 26.453125 73.285156 26.742188 72.09375 C 26.976562 71.140625 27.070312 70.152344 27.300781 69.195312 C 27.722656 67.445312 28.199219 65.707031 28.652344 63.960938 C 28.675781 63.867188 28.679688 63.765625 28.710938 63.582031 C 28.875 63.105469 29.003906 62.703125 29.171875 62.316406 C 29.628906 61.257812 29.457031 60.929688 28.277344 60.679688 C 27.625 60.105469 26.859375 60.0625 26.085938 60.140625 C 24.902344 60.257812 23.722656 60.410156 22.542969 60.550781 C 22.457031 60.570312 22.375 60.589844 22.214844 60.570312 C 21.542969 60.242188 20.957031 59.933594 20.347656 59.679688 C 19.683594 59.40625 19 59.179688 18.324219 58.9375 C 18.34375 58.835938 18.351562 58.734375 18.382812 58.640625 C 18.585938 57.9375 18.375 57.582031 17.847656 57.089844 C 16.539062 55.875 15.261719 54.617188 14.035156 53.320312 C 13.019531 52.25 12.089844 51.09375 11.078125 49.90625 C 10.988281 49.707031 10.875 49.566406 10.902344 49.457031 C 11.140625 48.527344 10.65625 47.929688 9.921875 47.523438 C 9.40625 47.238281 8.8125 47.09375 8.253906 46.886719 C 8.285156 46.609375 8.355469 46.332031 8.335938 46.0625 C 8.3125 45.710938 8.339844 45.226562 8.128906 45.039062 C 7.105469 44.136719 7.476562 43 7.492188 41.925781 C 7.503906 41.335938 7.628906 40.746094 7.617188 40.15625 C 7.605469 39.460938 7.503906 38.769531 7.445312 38.074219 C 7.335938 36.773438 7.230469 35.472656 7.128906 34.171875 C 7.121094 34.078125 7.160156 33.980469 7.214844 33.675781 C 7.777344 34.226562 8.25 34.664062 8.695312 35.128906 C 9.746094 36.230469 10.601562 37.476562 11.308594 38.804688 C 11.6875 39.515625 11.875 40.332031 12.113281 41.113281 C 12.226562 41.492188 12.347656 41.902344 12.308594 42.285156 C 12.222656 43.179688 12.082031 44.074219 11.886719 44.953125 C 11.679688 45.878906 11.988281 46.355469 12.914062 46.453125 C 13.738281 46.535156 14.554688 46.695312 15.378906 46.769531 C 15.707031 46.800781 16.050781 46.6875 16.46875 46.628906 C 16.613281 46.542969 16.675781 46.46875 16.738281 46.394531 M 44.257812 48.335938 C 44.515625 48.699219 44.722656 49.109375 45.035156 49.410156 C 45.582031 49.9375 46.164062 50.4375 46.792969 50.859375 C 46.96875 50.972656 47.480469 50.855469 47.628906 50.675781 C 47.804688 50.457031 47.871094 50.027344 47.785156 49.746094 C 47.6875 49.425781 47.394531 49.148438 47.15625 48.878906 C 46.222656 47.835938 45.3125 46.769531 44.886719 45.425781 C 44.691406 44.808594 44.734375 44.121094 44.679688 43.460938 C 44.617188 42.710938 44.371094 42.496094 43.644531 42.699219 C 43.398438 42.765625 43.089844 42.992188 43.019531 43.210938 C 42.878906 43.652344 42.824219 44.140625 42.832031 44.609375 C 42.855469 45.976562 43.324219 47.203125 44.257812 48.335938 M 42.679688 51.71875 C 41.820312 51.210938 41.296875 50.441406 40.949219 49.535156 C 40.808594 49.175781 40.722656 48.792969 40.542969 48.460938 C 40.324219 48.058594 39.902344 47.730469 39.492188 47.984375 C 39.171875 48.183594 38.8125 48.722656 38.871094 49.035156 C 39.011719 49.8125 39.269531 50.625 39.695312 51.28125 C 40.171875 52.011719 40.886719 52.59375 41.507812 53.234375 C 41.941406 53.6875 42.84375 53.890625 43.351562 53.582031 C 43.59375 53.433594 43.835938 53.097656 43.851562 52.835938 C 43.863281 52.617188 43.570312 52.351562 43.367188 52.15625 C 43.199219 51.992188 42.960938 51.898438 42.679688 51.71875 Z M 42.679688 51.71875 "/>
<path style=" stroke:none;fill-rule:nonzero;fill:rgb(93.333334%,95.686275%,97.254902%);fill-opacity:1;" d="M 45.664062 64.644531 C 45.8125 64.210938 45.902344 63.746094 46.117188 63.351562 C 46.667969 62.339844 47.320312 61.386719 47.851562 60.367188 C 48.257812 59.585938 48.519531 58.734375 48.878906 57.929688 C 49.40625 56.753906 49.96875 55.597656 50.5 54.425781 C 50.792969 53.78125 51.054688 53.125 51.367188 52.414062 C 51.714844 51.628906 52.019531 50.914062 52.320312 50.195312 C 53.136719 48.246094 53.933594 46.289062 54.78125 44.351562 C 55.039062 43.765625 55.433594 43.234375 55.800781 42.648438 C 56.617188 42.164062 57.296875 41.539062 57.542969 40.699219 C 57.726562 40.058594 57.546875 39.3125 57.53125 38.617188 C 58.082031 37.871094 58.605469 37.109375 59.191406 36.394531 C 60.03125 35.367188 60.847656 34.308594 61.796875 33.390625 C 63.238281 32 64.722656 30.632812 66.308594 29.410156 C 68.394531 27.796875 70.714844 26.539062 73.273438 25.640625 C 73.890625 25.605469 74.28125 25.890625 74.546875 26.371094 C 75.140625 27.445312 75.515625 28.585938 75.859375 29.765625 C 76.699219 32.667969 76.792969 35.621094 76.6875 38.585938 C 76.609375 40.6875 76.320312 42.789062 76.039062 44.878906 C 75.878906 46.082031 75.628906 47.285156 75.269531 48.441406 C 74.910156 49.605469 74.367188 50.710938 73.898438 51.839844 C 73.722656 52.265625 73.539062 52.683594 73.3125 53.15625 C 73.242188 53.292969 73.214844 53.378906 73.1875 53.464844 C 73.175781 53.503906 73.167969 53.542969 73.121094 53.632812 C 72.042969 55.097656 71.132812 56.636719 69.921875 57.894531 C 68.53125 59.335938 66.886719 60.539062 65.328125 61.820312 C 64.808594 62.246094 64.222656 62.59375 63.667969 62.976562 C 62.570312 63.578125 61.488281 64.203125 60.375 64.761719 C 59.769531 65.066406 59.113281 65.269531 58.476562 65.5 C 57.890625 65.710938 57.304688 65.914062 56.707031 66.082031 C 55.242188 66.5 53.882812 67.242188 52.324219 67.367188 C 51.691406 67.417969 51.078125 67.6875 50.355469 67.863281 C 49.820312 67.96875 49.386719 68.070312 48.957031 68.167969 C 48.589844 68.214844 48.222656 68.257812 47.757812 68.320312 C 47.269531 68.398438 46.878906 68.460938 46.484375 68.523438 C 46.363281 68.515625 46.242188 68.511719 46.050781 68.492188 C 45.875 68.511719 45.769531 68.546875 45.664062 68.578125 C 45.121094 68.574219 44.582031 68.574219 43.972656 68.535156 C 43.941406 68.375 43.949219 68.226562 44.027344 68.140625 C 44.601562 67.519531 45.195312 66.917969 45.773438 66.300781 C 46.28125 65.761719 46.226562 65.050781 45.664062 64.644531 M 73.433594 33.433594 C 72.210938 33.253906 70.988281 33.058594 69.757812 32.898438 C 69.101562 32.816406 68.527344 32.976562 68.058594 33.507812 C 67.132812 34.5625 66.203125 35.613281 65.207031 36.597656 C 64.695312 37.105469 64.21875 37.707031 63.332031 37.710938 C 62.746094 37.710938 62.300781 38.703125 62.605469 39.21875 C 63.183594 40.203125 64.242188 40.625 65.121094 41.25 C 65.390625 41.441406 65.71875 41.574219 65.921875 41.816406 C 66.570312 42.59375 67.664062 42.9375 68.40625 42.46875 C 68.988281 42.101562 69.5625 41.691406 70.050781 41.210938 C 71.097656 40.183594 72.097656 39.105469 73.089844 38.027344 C 74.015625 37.011719 74.613281 35.800781 75.078125 34.527344 C 75.265625 34.011719 74.898438 33.5 74.347656 33.453125 C 74.082031 33.429688 73.8125 33.441406 73.433594 33.433594 Z M 73.433594 33.433594 "/>
<path style=" stroke:none;fill-rule:nonzero;fill:rgb(92.54902%,95.294118%,96.470588%);fill-opacity:1;" d="M 73.742188 55.992188 C 73.800781 55.941406 73.859375 55.894531 74.085938 55.714844 C 74.277344 57.539062 74.601562 59.234375 74.597656 60.925781 C 74.597656 62.394531 74.253906 63.871094 74.023438 65.335938 C 73.832031 66.542969 73.238281 67.589844 72.585938 68.609375 C 72.308594 69.042969 72.0625 69.21875 71.574219 68.828125 C 70.382812 67.871094 69.164062 66.953125 67.941406 66.035156 C 67.230469 65.503906 66.484375 65.011719 65.761719 64.492188 C 65.644531 64.40625 65.566406 64.257812 65.5 64.074219 C 66.324219 63.429688 67.171875 62.90625 67.902344 62.253906 C 69.285156 61.023438 70.648438 59.757812 71.929688 58.425781 C 72.628906 57.703125 73.144531 56.808594 73.742188 55.992188 Z M 73.742188 55.992188 "/>
<path style=" stroke:none;fill-rule:nonzero;fill:rgb(64.313728%,76.078433%,91.37255%);fill-opacity:1;" d="M 26.765625 31.125 C 27.261719 31.582031 27.652344 32.113281 28.164062 32.476562 C 29.820312 33.652344 31.21875 35.058594 32.351562 36.738281 C 32.5625 37.054688 32.839844 37.328125 33.0625 37.636719 C 33.59375 38.367188 33.820312 39.246094 33.550781 40.046875 C 33.304688 40.78125 32.800781 41.496094 32.234375 42.039062 C 31.25 42.992188 30.144531 43.820312 29.0625 44.667969 C 28.878906 44.808594 28.558594 44.773438 28.253906 44.820312 C 28.390625 44.183594 28.695312 43.550781 28.734375 42.90625 C 28.800781 41.859375 28.792969 40.789062 28.640625 39.753906 C 28.34375 37.746094 27.664062 35.832031 26.914062 33.949219 C 26.664062 33.320312 26.300781 32.738281 26.058594 32.113281 C 25.785156 31.398438 25.929688 31.21875 26.765625 31.125 Z M 26.765625 31.125 "/>
<path style=" stroke:none;fill-rule:nonzero;fill:rgb(44.313726%,51.764709%,62.7451%);fill-opacity:1;" d="M 73.738281 55.933594 C 73.144531 56.808594 72.628906 57.703125 71.929688 58.425781 C 70.648438 59.757812 69.285156 61.023438 67.902344 62.253906 C 67.171875 62.90625 66.324219 63.429688 65.492188 64.03125 C 65.179688 63.796875 64.90625 63.539062 64.625 63.289062 C 64.378906 63.066406 64.15625 62.757812 63.707031 62.976562 C 64.222656 62.59375 64.808594 62.246094 65.328125 61.820312 C 66.886719 60.539062 68.53125 59.335938 69.921875 57.894531 C 71.132812 56.636719 72.042969 55.097656 73.117188 53.664062 C 73.347656 54.386719 73.542969 55.128906 73.738281 55.933594 Z M 73.738281 55.933594 "/>
<path style=" stroke:none;fill-rule:nonzero;fill:rgb(63.137257%,75.294119%,90.588236%);fill-opacity:1;" d="M 8.214844 46.910156 C 8.8125 47.09375 9.40625 47.238281 9.921875 47.523438 C 10.65625 47.929688 11.140625 48.527344 10.902344 49.457031 C 10.875 49.566406 10.988281 49.707031 11.054688 49.871094 C 9.75 49.894531 8.429688 49.90625 7.105469 49.871094 C 5.773438 49.835938 4.714844 49.191406 3.789062 48.300781 C 3.5 48.023438 3.554688 47.757812 3.914062 47.667969 C 4.695312 47.46875 5.484375 47.316406 6.277344 47.179688 C 6.902344 47.074219 7.539062 47.015625 8.214844 46.910156 Z M 8.214844 46.910156 "/>
<path style=" stroke:none;fill-rule:nonzero;fill:rgb(63.529414%,75.294119%,90.588236%);fill-opacity:1;" d="M 18.28125 58.949219 C 19 59.179688 19.683594 59.40625 20.347656 59.679688 C 20.957031 59.933594 21.542969 60.242188 22.183594 60.554688 C 20.257812 62.097656 17.167969 62.5 15.0625 61.195312 C 15.988281 60.230469 17.214844 59.722656 18.28125 58.949219 Z M 18.28125 58.949219 "/>
<path style=" stroke:none;fill-rule:nonzero;fill:rgb(43.529412%,52.156866%,63.529414%);fill-opacity:1;" d="M 45.609375 64.652344 C 46.226562 65.050781 46.28125 65.761719 45.773438 66.300781 C 45.195312 66.917969 44.601562 67.519531 44.027344 68.140625 C 43.949219 68.226562 43.941406 68.375 43.921875 68.53125 C 43.34375 68.648438 42.75 68.78125 42.15625 68.78125 C 41.929688 68.78125 41.699219 68.472656 41.472656 68.261719 C 41.683594 67.949219 41.871094 67.664062 42.105469 67.421875 C 42.863281 66.632812 43.636719 65.855469 44.40625 65.078125 C 44.722656 64.761719 45.097656 64.585938 45.609375 64.652344 Z M 45.609375 64.652344 "/>
<path style=" stroke:none;fill-rule:nonzero;fill:rgb(90.588236%,94.509804%,96.862745%);fill-opacity:1;" d="M 22.554688 60.59375 C 23.722656 60.410156 24.902344 60.257812 26.085938 60.140625 C 26.859375 60.0625 27.625 60.105469 28.246094 60.710938 C 27.988281 61.074219 27.691406 61.347656 27.507812 61.683594 C 27.289062 62.089844 27.164062 62.550781 27 62.988281 C 26.507812 62.859375 25.953125 62.835938 25.53125 62.589844 C 24.507812 61.992188 23.550781 61.292969 22.554688 60.59375 Z M 22.554688 60.59375 "/>
<path style=" stroke:none;fill-rule:nonzero;fill:rgb(62.7451%,75.294119%,90.196079%);fill-opacity:1;" d="M 22.75 46.222656 C 22.601562 46.304688 22.433594 46.382812 22.257812 46.390625 C 20.839844 46.480469 19.421875 46.574219 18.003906 46.617188 C 17.691406 46.625 17.371094 46.425781 17.019531 46.296875 C 17.558594 45.703125 18.105469 45.097656 18.738281 44.59375 C 18.90625 44.457031 19.367188 44.5625 19.632812 44.683594 C 20.675781 45.15625 21.695312 45.683594 22.75 46.222656 Z M 22.75 46.222656 "/>
<path style=" stroke:none;fill-rule:nonzero;fill:rgb(43.529412%,52.156866%,63.137257%);fill-opacity:1;" d="M 27.050781 63.003906 C 27.164062 62.550781 27.289062 62.089844 27.507812 61.683594 C 27.691406 61.347656 27.988281 61.074219 28.269531 60.742188 C 29.457031 60.929688 29.628906 61.257812 29.171875 62.316406 C 29.003906 62.703125 28.875 63.105469 28.699219 63.535156 C 28.148438 63.386719 27.625 63.207031 27.050781 63.003906 Z M 27.050781 63.003906 "/>
<path style=" stroke:none;fill-rule:nonzero;fill:rgb(43.529412%,52.156866%,63.529414%);fill-opacity:1;" d="M 49.011719 68.179688 C 49.386719 68.070312 49.820312 67.96875 50.304688 67.871094 C 49.925781 67.976562 49.496094 68.082031 49.011719 68.179688 Z M 49.011719 68.179688 "/>
<path style=" stroke:none;fill-rule:nonzero;fill:rgb(43.529412%,52.156866%,63.529414%);fill-opacity:1;" d="M 46.539062 68.539062 C 46.878906 68.460938 47.269531 68.398438 47.71875 68.34375 C 47.378906 68.421875 46.988281 68.488281 46.539062 68.539062 Z M 46.539062 68.539062 "/>
<path style=" stroke:none;fill-rule:nonzero;fill:rgb(43.529412%,52.156866%,63.529414%);fill-opacity:1;" d="M 45.691406 68.601562 C 45.769531 68.546875 45.875 68.511719 46.007812 68.503906 C 45.929688 68.558594 45.824219 68.589844 45.691406 68.601562 Z M 45.691406 68.601562 "/>
<path style=" stroke:none;fill-rule:nonzero;fill:rgb(44.313726%,51.764709%,62.7451%);fill-opacity:1;" d="M 73.222656 53.441406 C 73.214844 53.378906 73.242188 53.292969 73.300781 53.199219 C 73.308594 53.269531 73.28125 53.34375 73.222656 53.441406 Z M 73.222656 53.441406 "/>
<path style=" stroke:none;fill-rule:nonzero;fill:rgb(62.7451%,75.294119%,90.196079%);fill-opacity:1;" d="M 16.699219 46.398438 C 16.675781 46.46875 16.613281 46.542969 16.515625 46.625 C 16.535156 46.554688 16.597656 46.476562 16.699219 46.398438 Z M 16.699219 46.398438 "/>
<path style=" stroke:none;fill-rule:nonzero;fill:rgb(64.313728%,76.078433%,91.37255%);fill-opacity:1;" d="M 27.53125 30.808594 C 27.503906 30.863281 27.433594 30.914062 27.34375 30.945312 C 27.378906 30.886719 27.4375 30.847656 27.53125 30.808594 Z M 27.53125 30.808594 "/>
<path style=" stroke:none;fill-rule:nonzero;fill:rgb(84.313726%,94.117647%,95.686275%);fill-opacity:1;" d="M 68.820312 17.054688 C 67.980469 17.511719 67.121094 17.320312 66.347656 16.964844 C 65.089844 16.382812 64.316406 15.34375 64.117188 13.976562 C 63.921875 12.648438 64.488281 11.355469 66.003906 10.945312 C 66.824219 10.726562 67.625 10.332031 68.453125 10.273438 C 69.800781 10.175781 71.214844 11.460938 71.554688 12.625 C 71.828125 13.554688 71.421875 14.414062 70.945312 15.179688 C 70.597656 15.734375 70.074219 16.183594 69.582031 16.636719 C 69.453125 16.351562 69.414062 16.082031 69.285156 15.859375 C 69.050781 15.445312 68.644531 15.382812 68.226562 15.527344 C 67.730469 15.699219 67.660156 16.113281 67.699219 16.5625 C 67.742188 17.039062 68.085938 17.0625 68.457031 17.050781 C 68.578125 17.046875 68.699219 17.054688 68.820312 17.054688 M 68.859375 14.003906 C 69.5 14.558594 70.011719 14.484375 70.347656 13.726562 C 70.609375 13.128906 70.519531 12.511719 70.257812 11.917969 C 70.027344 11.40625 69.371094 11.257812 68.9375 11.625 C 68.359375 12.113281 68.28125 13.363281 68.859375 14.003906 Z M 68.859375 14.003906 "/>
<path style=" stroke:none;fill-rule:nonzero;fill:rgb(70.588237%,85.490197%,92.941177%);fill-opacity:1;" d="M 68.867188 17.054688 C 68.699219 17.054688 68.578125 17.046875 68.457031 17.050781 C 68.085938 17.0625 67.742188 17.039062 67.699219 16.5625 C 67.660156 16.113281 67.730469 15.699219 68.226562 15.527344 C 68.644531 15.382812 69.050781 15.445312 69.285156 15.859375 C 69.414062 16.082031 69.453125 16.351562 69.539062 16.644531 C 69.332031 16.8125 69.121094 16.933594 68.867188 17.054688 Z M 68.867188 17.054688 "/>
<path style=" stroke:none;fill-rule:nonzero;fill:rgb(67.450982%,83.137256%,92.941177%);fill-opacity:1;" d="M 19.179688 36.4375 C 19.035156 37.074219 18.21875 37.675781 17.65625 37.53125 C 17.445312 37.476562 17.179688 37.210938 17.140625 37.003906 C 17.046875 36.523438 17.140625 36.019531 17.675781 35.820312 C 18.519531 35.511719 18.726562 35.613281 19.179688 36.4375 Z M 19.179688 36.4375 "/>
<path style=" stroke:none;fill-rule:nonzero;fill:rgb(80.784315%,91.764706%,94.901961%);fill-opacity:1;" d="M 59.675781 18.507812 C 59.925781 18.617188 60.125 18.710938 60.386719 18.835938 C 59.914062 19.335938 59.507812 19.734375 58.875 19.378906 C 58.691406 19.277344 58.472656 19.03125 58.476562 18.855469 C 58.476562 18.578125 58.671875 18.324219 59.042969 18.382812 C 59.238281 18.414062 59.433594 18.457031 59.675781 18.507812 Z M 59.675781 18.507812 "/>
<path style=" stroke:none;fill-rule:nonzero;fill:rgb(73.725492%,87.058824%,93.333334%);fill-opacity:1;" d="M 14.933594 28.988281 C 15.144531 29.214844 15.308594 29.445312 15.46875 29.679688 C 15.328125 29.773438 15.199219 29.933594 15.046875 29.953125 C 14.867188 29.976562 14.671875 29.882812 14.484375 29.839844 C 14.535156 29.648438 14.566406 29.445312 14.644531 29.261719 C 14.6875 29.160156 14.804688 29.085938 14.933594 28.988281 Z M 14.933594 28.988281 "/>
<path style=" stroke:none;fill-rule:nonzero;fill:rgb(77.254903%,89.411765%,93.725491%);fill-opacity:1;" d="M 8.503906 57.699219 C 8.425781 57.503906 8.332031 57.304688 8.371094 57.140625 C 8.425781 56.902344 8.578125 56.6875 8.742188 56.359375 C 8.929688 56.566406 9.25 56.832031 9.210938 56.902344 C 9.050781 57.203125 8.78125 57.445312 8.503906 57.699219 Z M 8.503906 57.699219 "/>
<path style=" stroke:none;fill-rule:nonzero;fill:rgb(15.686275%,30.19608%,43.137255%);fill-opacity:1;" d="M 57.5 38.589844 C 57.546875 39.3125 57.726562 40.058594 57.542969 40.699219 C 57.296875 41.539062 56.617188 42.164062 55.753906 42.644531 C 55.46875 42.746094 55.269531 42.859375 55.058594 42.894531 C 54.761719 42.941406 54.457031 42.929688 54.148438 42.90625 C 53.839844 42.660156 53.527344 42.46875 53.246094 42.242188 C 53.03125 42.066406 52.835938 41.863281 52.675781 41.640625 C 52.453125 41.332031 52.265625 41 52.058594 40.644531 C 52.03125 40.546875 52.015625 40.484375 51.996094 40.421875 C 52.066406 39.804688 52.050781 39.15625 52.226562 38.570312 C 52.609375 37.296875 53.503906 36.019531 55.304688 36.273438 C 55.953125 36.367188 56.328125 36.804688 56.660156 37.289062 C 56.945312 37.707031 57.203125 38.140625 57.5 38.589844 Z M 57.5 38.589844 "/>
<path style=" stroke:none;fill-rule:nonzero;fill:rgb(42.352942%,51.764709%,63.921571%);fill-opacity:1;" d="M 44.230469 48.300781 C 43.324219 47.203125 42.855469 45.976562 42.832031 44.609375 C 42.824219 44.140625 42.878906 43.652344 43.019531 43.210938 C 43.089844 42.992188 43.398438 42.765625 43.644531 42.699219 C 44.371094 42.496094 44.617188 42.710938 44.679688 43.460938 C 44.734375 44.121094 44.691406 44.808594 44.886719 45.425781 C 45.3125 46.769531 46.222656 47.835938 47.15625 48.878906 C 47.394531 49.148438 47.6875 49.425781 47.785156 49.746094 C 47.871094 50.027344 47.804688 50.457031 47.628906 50.675781 C 47.480469 50.855469 46.96875 50.972656 46.792969 50.859375 C 46.164062 50.4375 45.582031 49.9375 45.035156 49.410156 C 44.722656 49.109375 44.515625 48.699219 44.230469 48.300781 Z M 44.230469 48.300781 "/>
<path style=" stroke:none;fill-rule:nonzero;fill:rgb(42.745098%,52.156866%,63.921571%);fill-opacity:1;" d="M 42.714844 51.746094 C 42.960938 51.898438 43.199219 51.992188 43.367188 52.15625 C 43.570312 52.351562 43.863281 52.617188 43.851562 52.835938 C 43.835938 53.097656 43.59375 53.433594 43.351562 53.582031 C 42.84375 53.890625 41.941406 53.6875 41.507812 53.234375 C 40.886719 52.59375 40.171875 52.011719 39.695312 51.28125 C 39.269531 50.625 39.011719 49.8125 38.871094 49.035156 C 38.8125 48.722656 39.171875 48.183594 39.492188 47.984375 C 39.902344 47.730469 40.324219 48.058594 40.542969 48.460938 C 40.722656 48.792969 40.808594 49.175781 40.949219 49.535156 C 41.296875 50.441406 41.820312 51.210938 42.714844 51.746094 Z M 42.714844 51.746094 "/>
<path style=" stroke:none;fill-rule:nonzero;fill:rgb(78.431374%,82.745099%,88.627452%);fill-opacity:1;" d="M 51.941406 40.425781 C 52.015625 40.484375 52.03125 40.546875 52.046875 40.695312 C 52.058594 40.945312 52.070312 41.113281 52.03125 41.273438 C 51.632812 41.1875 51.253906 41 50.929688 41.066406 C 50.457031 41.160156 50.015625 41.429688 49.566406 41.640625 C 48.472656 42.148438 48.230469 43.570312 49.003906 44.476562 C 49.414062 44.957031 49.851562 45.125 50.4375 45.0625 C 50.90625 45.011719 51.371094 44.976562 51.839844 44.9375 C 52.804688 44.855469 53.644531 43.949219 53.699219 42.976562 C 53.839844 42.984375 53.933594 43 54.027344 43.066406 C 54.128906 43.789062 53.925781 44.277344 53.277344 44.59375 C 52.804688 44.824219 52.382812 45.144531 51.9375 45.421875 C 51.449219 45.421875 50.949219 45.375 50.46875 45.4375 C 49.753906 45.527344 49.210938 45.167969 48.648438 44.855469 C 48.46875 44.753906 48.308594 44.550781 48.222656 44.359375 C 47.691406 43.195312 48.167969 41.859375 49.300781 41.25 C 49.390625 41.203125 49.503906 41.171875 49.5625 41.097656 C 50.1875 40.355469 50.980469 40.207031 51.941406 40.425781 Z M 51.941406 40.425781 "/>
<path style=" stroke:none;fill-rule:nonzero;fill:rgb(71.372551%,82.745099%,90.588236%);fill-opacity:1;" d="M 51.972656 45.441406 C 52.382812 45.144531 52.804688 44.824219 53.277344 44.59375 C 53.925781 44.277344 54.128906 43.789062 54.0625 43.050781 C 54.113281 42.96875 54.136719 42.957031 54.15625 42.945312 C 54.457031 42.929688 54.761719 42.941406 55.058594 42.894531 C 55.269531 42.859375 55.46875 42.746094 55.722656 42.671875 C 55.433594 43.234375 55.039062 43.765625 54.78125 44.351562 C 53.933594 46.289062 53.136719 48.246094 52.320312 50.195312 C 52.019531 50.914062 51.714844 51.628906 51.371094 52.367188 C 51.59375 51.53125 51.851562 50.675781 52.113281 49.820312 C 52.117188 49.800781 52.144531 49.789062 52.152344 49.769531 C 52.59375 48.753906 52.734375 47.625 53.53125 46.71875 C 53.15625 46.546875 52.949219 46.453125 52.746094 46.359375 C 52.710938 46.308594 52.675781 46.261719 52.640625 46.210938 C 53.894531 46.234375 53.816406 45.21875 54.160156 44.503906 C 53.441406 44.824219 52.722656 45.144531 51.972656 45.441406 Z M 51.972656 45.441406 "/>
<path style=" stroke:none;fill-rule:nonzero;fill:rgb(17.647059%,30.980393%,42.745098%);fill-opacity:1;" d="M 73.492188 33.433594 C 73.8125 33.441406 74.082031 33.429688 74.347656 33.453125 C 74.898438 33.5 75.265625 34.011719 75.078125 34.527344 C 74.613281 35.800781 74.015625 37.011719 73.089844 38.027344 C 72.097656 39.105469 71.097656 40.183594 70.050781 41.210938 C 69.5625 41.691406 68.988281 42.101562 68.40625 42.46875 C 67.664062 42.9375 66.570312 42.59375 65.921875 41.816406 C 65.71875 41.574219 65.390625 41.441406 65.121094 41.25 C 64.242188 40.625 63.183594 40.203125 62.605469 39.21875 C 62.300781 38.703125 62.746094 37.710938 63.332031 37.710938 C 64.21875 37.707031 64.695312 37.105469 65.207031 36.597656 C 66.203125 35.613281 67.132812 34.5625 68.058594 33.507812 C 68.527344 32.976562 69.101562 32.816406 69.757812 32.898438 C 70.988281 33.058594 72.210938 33.253906 73.492188 33.433594 M 70.003906 38.820312 C 70.003906 38.820312 69.992188 38.816406 70.085938 38.820312 C 70.441406 38.535156 70.773438 38.222656 71.152344 37.976562 C 71.910156 37.488281 72.347656 36.75 72.746094 35.996094 C 73.125 35.277344 72.933594 34.882812 72.132812 34.722656 C 71.3125 34.5625 70.476562 34.484375 69.644531 34.417969 C 69.453125 34.402344 69.191406 34.53125 69.054688 34.679688 C 68.347656 35.425781 67.675781 36.210938 66.980469 36.964844 C 66.734375 37.230469 66.484375 37.527344 66.171875 37.683594 C 65.714844 37.910156 65.609375 38.171875 65.855469 38.679688 C 65.855469 38.734375 65.855469 38.792969 65.804688 38.90625 C 65.871094 39.570312 67.007812 40.921875 67.625 40.996094 C 67.828125 41.019531 68.089844 40.886719 68.265625 40.753906 C 68.585938 40.507812 68.820312 40.097656 69.175781 39.957031 C 69.742188 39.730469 69.878906 39.296875 70.003906 38.820312 Z M 70.003906 38.820312 "/>
<path style=" stroke:none;fill-rule:nonzero;fill:rgb(70.588237%,85.490197%,93.333334%);fill-opacity:1;" d="M 68.828125 13.972656 C 68.28125 13.363281 68.359375 12.113281 68.9375 11.625 C 69.371094 11.257812 70.027344 11.40625 70.257812 11.917969 C 70.519531 12.511719 70.609375 13.128906 70.347656 13.726562 C 70.011719 14.484375 69.5 14.558594 68.828125 13.972656 Z M 68.828125 13.972656 "/>
<path style=" stroke:none;fill-rule:nonzero;fill:rgb(29.411766%,33.725491%,43.137255%);fill-opacity:1;" d="M 54.148438 42.90625 C 54.136719 42.957031 54.113281 42.96875 54.0625 43 C 53.933594 43 53.839844 42.984375 53.664062 42.953125 C 52.832031 42.605469 52.089844 42.269531 52.078125 41.285156 C 52.070312 41.113281 52.058594 40.945312 52.058594 40.726562 C 52.265625 41 52.453125 41.332031 52.675781 41.640625 C 52.835938 41.863281 53.03125 42.066406 53.246094 42.242188 C 53.527344 42.46875 53.839844 42.660156 54.148438 42.90625 Z M 54.148438 42.90625 "/>
<path style=" stroke:none;fill-rule:nonzero;fill:rgb(96.862745%,80.000001%,78.431374%);fill-opacity:1;" d="M 52.03125 41.273438 C 52.089844 42.269531 52.832031 42.605469 53.617188 42.957031 C 53.644531 43.949219 52.804688 44.855469 51.839844 44.9375 C 51.371094 44.976562 50.90625 45.011719 50.4375 45.0625 C 49.851562 45.125 49.414062 44.957031 49.003906 44.476562 C 48.230469 43.570312 48.472656 42.148438 49.566406 41.640625 C 50.015625 41.429688 50.457031 41.160156 50.929688 41.066406 C 51.253906 41 51.632812 41.1875 52.03125 41.273438 Z M 52.03125 41.273438 "/>
<path style=" stroke:none;fill-rule:nonzero;fill:rgb(84.313726%,67.843139%,65.490198%);fill-opacity:1;" d="M 65.855469 38.847656 C 65.855469 38.792969 65.855469 38.734375 65.882812 38.613281 C 67.054688 37.308594 68.1875 36.0625 69.34375 34.832031 C 69.433594 34.738281 69.671875 34.746094 69.835938 34.765625 C 70.359375 34.828125 70.878906 34.910156 71.398438 35.003906 C 71.78125 35.070312 72.160156 35.167969 72.53125 35.25 C 72.511719 35.425781 72.515625 35.488281 72.5 35.542969 C 72.449219 35.699219 72.390625 35.847656 72.300781 36.015625 C 72.222656 36.125 72.183594 36.210938 72.136719 36.300781 C 72.132812 36.296875 72.132812 36.304688 72.097656 36.316406 C 72.027344 36.386719 71.988281 36.449219 71.929688 36.523438 C 71.886719 36.570312 71.871094 36.597656 71.828125 36.648438 C 71.757812 36.746094 71.71875 36.832031 71.65625 36.941406 C 71.585938 37.011719 71.535156 37.058594 71.453125 37.113281 C 71.394531 37.164062 71.367188 37.203125 71.3125 37.265625 C 70.851562 37.800781 70.421875 38.308594 69.992188 38.816406 C 69.992188 38.816406 70.003906 38.820312 69.960938 38.816406 C 69.84375 38.855469 69.761719 38.878906 69.703125 38.933594 C 69.160156 39.445312 68.621094 39.960938 68.085938 40.480469 C 67.800781 40.753906 67.589844 40.816406 67.296875 40.441406 C 66.855469 39.878906 66.339844 39.375 65.855469 38.847656 M 70.347656 37.640625 C 70.613281 37.367188 70.921875 37.125 71.136719 36.816406 C 71.367188 36.492188 71.507812 36.109375 71.6875 35.753906 C 71.277344 35.601562 70.867188 35.449219 70.453125 35.296875 C 70.09375 35.160156 69.800781 35.214844 69.515625 35.503906 C 68.550781 36.484375 67.566406 37.445312 66.585938 38.410156 C 66.304688 38.6875 66.3125 38.898438 66.648438 39.148438 C 66.949219 39.378906 67.199219 39.679688 67.457031 39.960938 C 67.683594 40.207031 67.851562 40.253906 68.09375 39.953125 C 68.351562 39.621094 68.675781 39.34375 68.972656 39.042969 C 69.410156 38.59375 69.847656 38.148438 70.347656 37.640625 Z M 70.347656 37.640625 "/>
<path style=" stroke:none;fill-rule:nonzero;fill:rgb(27.058825%,29.803923%,37.254903%);fill-opacity:1;" d="M 72.332031 36 C 72.390625 35.847656 72.449219 35.699219 72.5 35.542969 C 72.515625 35.488281 72.511719 35.425781 72.53125 35.25 C 72.160156 35.167969 71.78125 35.070312 71.398438 35.003906 C 70.878906 34.910156 70.359375 34.828125 69.835938 34.765625 C 69.671875 34.746094 69.433594 34.738281 69.34375 34.832031 C 68.1875 36.0625 67.054688 37.308594 65.882812 38.570312 C 65.609375 38.171875 65.714844 37.910156 66.171875 37.683594 C 66.484375 37.527344 66.734375 37.230469 66.980469 36.964844 C 67.675781 36.210938 68.347656 35.425781 69.054688 34.679688 C 69.191406 34.53125 69.453125 34.402344 69.644531 34.417969 C 70.476562 34.484375 71.3125 34.5625 72.132812 34.722656 C 72.933594 34.882812 73.125 35.277344 72.746094 35.996094 C 72.347656 36.75 71.910156 37.488281 71.152344 37.976562 C 70.773438 38.222656 70.441406 38.535156 70.039062 38.816406 C 70.421875 38.308594 70.851562 37.800781 71.34375 37.25 C 71.429688 37.175781 71.457031 37.136719 71.484375 37.101562 C 71.535156 37.058594 71.585938 37.011719 71.691406 36.925781 C 71.785156 36.800781 71.824219 36.714844 71.863281 36.632812 C 71.871094 36.597656 71.886719 36.570312 71.964844 36.511719 C 72.054688 36.421875 72.09375 36.363281 72.132812 36.304688 C 72.132812 36.304688 72.132812 36.296875 72.175781 36.285156 C 72.253906 36.183594 72.292969 36.089844 72.332031 36 Z M 72.332031 36 "/>
<path style=" stroke:none;fill-rule:nonzero;fill:rgb(27.058825%,29.803923%,37.254903%);fill-opacity:1;" d="M 65.832031 38.878906 C 66.339844 39.375 66.855469 39.878906 67.296875 40.441406 C 67.589844 40.816406 67.800781 40.753906 68.085938 40.480469 C 68.621094 39.960938 69.160156 39.445312 69.703125 38.933594 C 69.761719 38.878906 69.84375 38.855469 69.960938 38.8125 C 69.878906 39.296875 69.742188 39.730469 69.175781 39.957031 C 68.820312 40.097656 68.585938 40.507812 68.265625 40.753906 C 68.089844 40.886719 67.828125 41.019531 67.625 40.996094 C 67.007812 40.921875 65.871094 39.570312 65.832031 38.878906 Z M 65.832031 38.878906 "/>
<path style=" stroke:none;fill-rule:nonzero;fill:rgb(98.431373%,69.803923%,61.176473%);fill-opacity:1;" d="M 70.316406 37.671875 C 69.847656 38.148438 69.410156 38.59375 68.972656 39.042969 C 68.675781 39.34375 68.351562 39.621094 68.09375 39.953125 C 67.851562 40.253906 67.683594 40.207031 67.457031 39.960938 C 67.199219 39.679688 66.949219 39.378906 66.648438 39.148438 C 66.3125 38.898438 66.304688 38.6875 66.585938 38.410156 C 67.566406 37.445312 68.550781 36.484375 69.515625 35.503906 C 69.800781 35.214844 70.09375 35.160156 70.453125 35.296875 C 70.867188 35.449219 71.277344 35.601562 71.6875 35.753906 C 71.507812 36.109375 71.367188 36.492188 71.136719 36.816406 C 70.921875 37.125 70.613281 37.367188 70.316406 37.671875 Z M 70.316406 37.671875 "/>
<path style=" stroke:none;fill-rule:nonzero;fill:rgb(46.27451%,39.607844%,44.313726%);fill-opacity:1;" d="M 71.828125 36.648438 C 71.824219 36.714844 71.785156 36.800781 71.710938 36.898438 C 71.71875 36.832031 71.757812 36.746094 71.828125 36.648438 Z M 71.828125 36.648438 "/>
<path style=" stroke:none;fill-rule:nonzero;fill:rgb(46.27451%,39.607844%,44.313726%);fill-opacity:1;" d="M 72.300781 36.015625 C 72.292969 36.089844 72.253906 36.183594 72.179688 36.285156 C 72.183594 36.210938 72.222656 36.125 72.300781 36.015625 Z M 72.300781 36.015625 "/>
<path style=" stroke:none;fill-rule:nonzero;fill:rgb(46.27451%,39.607844%,44.313726%);fill-opacity:1;" d="M 72.097656 36.316406 C 72.09375 36.363281 72.054688 36.421875 71.984375 36.492188 C 71.988281 36.449219 72.027344 36.386719 72.097656 36.316406 Z M 72.097656 36.316406 "/>
<path style=" stroke:none;fill-rule:nonzero;fill:rgb(46.27451%,39.607844%,44.313726%);fill-opacity:1;" d="M 71.453125 37.113281 C 71.457031 37.136719 71.429688 37.175781 71.371094 37.222656 C 71.367188 37.203125 71.394531 37.164062 71.453125 37.113281 Z M 71.453125 37.113281 "/>
</g>
</svg>
