<?xml version="1.0" encoding="UTF-8"?>
<svg xmlns="http://www.w3.org/2000/svg" xmlns:xlink="http://www.w3.org/1999/xlink" width="80px" height="53px" viewBox="0 0 79 53" version="1.1">
<g id="surface1">
<path style=" stroke:none;fill-rule:nonzero;fill:rgb(0%,0%,0%);fill-opacity:1;" d="M 0.109375 38.03125 C 2.410156 37.523438 4.757812 37.671875 7.09375 37.5625 C 7.09375 36.664062 7.09375 35.859375 7.09375 35.054688 C 7.089844 31.359375 7.933594 27.847656 9.398438 24.476562 C 9.621094 23.960938 9.746094 23.453125 9.761719 22.886719 C 9.847656 19.632812 9.910156 16.378906 10.089844 13.132812 C 10.273438 9.835938 10.507812 6.535156 11.269531 3.304688 C 11.339844 3 11.4375 2.703125 11.523438 2.402344 C 12.054688 0.507812 13.226562 0.0273438 15.148438 0.246094 C 16.859375 0.4375 18.355469 1.226562 19.789062 2.121094 C 23.164062 4.222656 26.011719 6.933594 28.570312 9.964844 C 28.824219 10.265625 29.023438 10.339844 29.398438 10.195312 C 31.5625 9.363281 33.828125 9.003906 36.128906 8.789062 C 41.058594 8.328125 45.808594 9.179688 50.460938 10.738281 C 50.894531 10.882812 51.101562 10.761719 51.359375 10.417969 C 54.007812 6.898438 57.082031 3.832031 60.851562 1.523438 C 61.839844 0.921875 62.902344 0.476562 64.042969 0.132812 C 64.59375 0.109375 65.105469 0.109375 65.699219 0.136719 C 66.296875 0.453125 66.621094 0.90625 66.84375 1.449219 C 67.144531 2.160156 67.355469 2.902344 67.511719 3.660156 C 68.3125 7.539062 68.523438 11.484375 68.695312 15.425781 C 68.820312 18.199219 68.894531 20.976562 68.804688 23.753906 C 68.796875 23.960938 68.820312 24.15625 68.902344 24.347656 C 70.019531 26.878906 70.832031 29.503906 71.261719 32.242188 C 71.316406 32.582031 71.484375 32.707031 71.839844 32.601562 C 72.308594 32.464844 72.789062 32.347656 73.273438 32.246094 C 74.703125 31.941406 76.132812 31.648438 77.5625 31.355469 C 77.863281 31.296875 78.140625 31.347656 78.199219 31.695312 C 78.257812 32.019531 77.964844 32.0625 77.746094 32.136719 C 77.695312 32.15625 77.636719 32.152344 77.582031 32.164062 C 75.851562 32.542969 74.121094 32.910156 72.394531 33.296875 C 71.496094 33.5 71.5 33.511719 71.5625 34.417969 C 71.578125 34.601562 71.582031 34.785156 71.578125 34.96875 C 71.570312 35.300781 71.710938 35.4375 72.050781 35.386719 C 73.113281 35.222656 74.179688 35.054688 75.246094 34.921875 C 76.53125 34.765625 77.808594 34.519531 79.109375 34.558594 C 79.109375 34.820312 79.109375 35.082031 79.070312 35.378906 C 78.589844 35.296875 78.160156 35.449219 77.726562 35.480469 C 75.851562 35.617188 73.992188 35.898438 72.136719 36.199219 C 71.757812 36.261719 71.660156 36.441406 71.671875 36.789062 C 71.683594 37.304688 71.703125 37.820312 71.597656 38.332031 C 71.5 38.800781 71.648438 38.984375 72.15625 38.984375 C 74.148438 38.992188 76.140625 39.035156 78.132812 39.082031 C 78.453125 39.089844 78.929688 39.007812 78.925781 39.523438 C 78.917969 40.074219 78.425781 39.894531 78.121094 39.894531 C 76.074219 39.902344 74.027344 39.886719 71.980469 39.875 C 71.632812 39.871094 71.355469 39.886719 71.246094 40.332031 C 70.5 43.34375 68.757812 45.695312 66.386719 47.609375 C 63.660156 49.808594 60.511719 51.15625 57.191406 52.128906 C 55.949219 52.496094 54.6875 52.785156 53.433594 53.109375 C 44.324219 53.109375 35.214844 53.109375 26.023438 53.085938 C 25.820312 53.019531 25.699219 52.96875 25.578125 52.941406 C 22.921875 52.390625 20.335938 51.621094 17.859375 50.5 C 14.695312 49.0625 11.894531 47.152344 9.8125 44.300781 C 9.609375 44.023438 9.417969 44.058594 9.15625 44.164062 C 8.292969 44.519531 7.433594 44.875 6.601562 45.304688 C 5.691406 45.777344 4.78125 46.242188 3.863281 46.699219 C 3.632812 46.8125 3.386719 46.828125 3.246094 46.558594 C 3.082031 46.257812 3.300781 46.125 3.523438 46.011719 C 5.183594 45.160156 6.800781 44.222656 8.558594 43.574219 C 8.738281 43.507812 8.957031 43.476562 9.054688 43.210938 C 8.902344 42.90625 8.734375 42.582031 8.574219 42.257812 C 8.164062 41.425781 8.167969 41.441406 7.273438 41.609375 C 5.257812 41.984375 3.304688 42.609375 1.304688 43.03125 C 0.992188 43.097656 0.632812 43.195312 0.539062 42.769531 C 0.445312 42.328125 0.828125 42.300781 1.132812 42.226562 C 2 42.015625 2.867188 41.789062 3.738281 41.582031 C 5.082031 41.261719 6.433594 40.953125 7.839844 40.625 C 7.671875 39.960938 7.515625 39.324219 7.351562 38.6875 C 7.292969 38.464844 7.109375 38.4375 6.917969 38.441406 C 4.929688 38.484375 2.933594 38.347656 0.953125 38.648438 C 0.664062 38.691406 0.367188 38.742188 0.109375 38.535156 C 0.109375 38.382812 0.109375 38.230469 0.109375 38.03125 M 43.222656 11.003906 C 41.15625 10.691406 39.089844 10.550781 37 10.730469 C 34.292969 10.960938 31.621094 11.300781 29.132812 12.488281 C 28.542969 12.769531 28.117188 12.664062 27.734375 12.140625 C 25.644531 9.28125 23.078125 6.914062 20.25 4.828125 C 18.785156 3.746094 17.265625 2.730469 15.472656 2.304688 C 13.648438 1.871094 13.398438 2.320312 13.09375 3.785156 C 12.488281 6.691406 12.308594 9.648438 12.128906 12.597656 C 11.914062 16.101562 11.757812 19.609375 11.777344 23.125 C 11.78125 23.746094 11.652344 24.304688 11.394531 24.875 C 9.667969 28.722656 8.777344 32.730469 9.128906 36.980469 C 9.164062 37.382812 9.292969 37.542969 9.6875 37.53125 C 10.035156 37.519531 10.382812 37.527344 10.726562 37.554688 C 10.976562 37.578125 11.128906 37.726562 11.105469 38 C 11.085938 38.25 10.917969 38.34375 10.691406 38.347656 C 10.382812 38.359375 10.070312 38.355469 9.761719 38.363281 C 9.59375 38.363281 9.363281 38.382812 9.398438 38.59375 C 9.484375 39.117188 9.570312 39.667969 9.855469 40.113281 C 10.089844 40.472656 10.496094 40.164062 10.828125 40.171875 C 10.882812 40.175781 10.9375 40.167969 10.992188 40.164062 C 11.253906 40.152344 11.492188 40.210938 11.503906 40.523438 C 11.515625 40.800781 11.324219 40.949219 11.058594 40.988281 C 10.808594 41.023438 10.546875 41.007812 10.3125 41.195312 C 10.480469 41.707031 10.6875 42.226562 11.082031 42.558594 C 11.347656 42.785156 11.722656 42.425781 12.058594 42.367188 C 12.273438 42.332031 12.472656 42.347656 12.542969 42.601562 C 12.613281 42.839844 12.488281 42.980469 12.277344 43.074219 C 12.070312 43.164062 11.808594 43.15625 11.65625 43.367188 C 12.15625 44.238281 13.589844 45.617188 14.953125 46.570312 C 17.898438 48.625 21.207031 49.8125 24.65625 50.648438 C 28.074219 51.480469 31.546875 51.894531 35.050781 52.128906 C 38.617188 52.367188 42.175781 52.328125 45.730469 52.054688 C 48.589844 51.832031 51.425781 51.425781 54.21875 50.757812 C 57.761719 49.914062 61.167969 48.734375 64.203125 46.648438 C 66.433594 45.121094 68.171875 43.183594 69.09375 40.585938 C 69.167969 40.367188 69.304688 40.152344 69.132812 39.835938 C 68.800781 39.835938 68.4375 39.855469 68.078125 39.828125 C 67.835938 39.808594 67.664062 39.648438 67.695312 39.378906 C 67.722656 39.140625 67.902344 39.054688 68.128906 39.046875 C 68.328125 39.042969 68.53125 39.035156 68.730469 39.019531 C 69.574219 38.941406 69.597656 38.914062 69.636719 38.066406 C 69.640625 37.976562 69.640625 37.882812 69.640625 37.789062 C 69.664062 36.675781 69.660156 36.667969 68.605469 36.839844 C 68.289062 36.890625 68.046875 36.847656 67.964844 36.511719 C 67.867188 36.117188 68.183594 36.058594 68.445312 35.992188 C 69.6875 35.675781 69.6875 35.679688 69.535156 34.40625 C 69.523438 34.320312 69.496094 34.234375 69.476562 34.160156 C 69.417969 34.140625 69.378906 34.113281 69.351562 34.121094 C 68.820312 34.257812 68.289062 34.390625 67.761719 34.539062 C 67.496094 34.609375 67.273438 34.585938 67.191406 34.289062 C 67.113281 34 67.332031 33.902344 67.550781 33.832031 C 68.003906 33.691406 68.453125 33.539062 68.914062 33.417969 C 69.242188 33.332031 69.394531 33.214844 69.339844 32.8125 C 68.957031 30.078125 68.117188 27.484375 67.011719 24.96875 C 66.851562 24.605469 66.777344 24.246094 66.785156 23.851562 C 66.832031 21 66.839844 18.152344 66.699219 15.300781 C 66.542969 12.144531 66.332031 8.992188 65.90625 5.859375 C 65.773438 4.875 65.59375 3.898438 65.335938 2.941406 C 65.105469 2.082031 64.933594 1.988281 64.097656 2.230469 C 63.621094 2.367188 63.164062 2.550781 62.722656 2.773438 C 60.542969 3.875 58.675781 5.410156 56.921875 7.085938 C 55.183594 8.753906 53.621094 10.574219 52.28125 12.585938 C 51.894531 13.167969 51.496094 13.285156 50.875 13.03125 C 48.441406 12.035156 45.898438 11.453125 43.222656 11.003906 Z M 43.222656 11.003906 "/>
<path style=" stroke:none;fill-rule:nonzero;fill:rgb(0%,0%,0%);fill-opacity:1;" d="M 19.613281 34.972656 C 19.628906 33.402344 20.5625 32.273438 21.9375 32.109375 C 23.21875 31.957031 24.460938 32.777344 24.808594 34.007812 C 25.21875 35.460938 24.414062 36.929688 22.984375 37.347656 C 21.574219 37.753906 20.164062 36.960938 19.722656 35.503906 C 19.675781 35.347656 19.652344 35.183594 19.613281 34.972656 Z M 19.613281 34.972656 "/>
<path style=" stroke:none;fill-rule:nonzero;fill:rgb(0%,0%,0%);fill-opacity:1;" d="M 55.199219 37.460938 C 53.644531 37.285156 52.730469 36.378906 52.585938 34.921875 C 52.472656 33.765625 53.269531 32.601562 54.429688 32.222656 C 55.835938 31.769531 57.320312 32.566406 57.765625 34.011719 C 58.199219 35.433594 57.394531 36.921875 55.949219 37.351562 C 55.722656 37.417969 55.484375 37.425781 55.199219 37.460938 Z M 55.199219 37.460938 "/>
<path style=" stroke:none;fill-rule:nonzero;fill:rgb(0%,0%,0%);fill-opacity:1;" d="M 38.722656 36.117188 C 38.824219 36.273438 38.902344 36.398438 38.960938 36.53125 C 39.398438 37.589844 40.613281 37.84375 41.457031 37.054688 C 41.769531 36.765625 41.96875 36.386719 42.210938 36.042969 C 42.460938 35.695312 42.777344 35.472656 43.183594 35.734375 C 43.5625 35.984375 43.597656 36.398438 43.386719 36.765625 C 42.394531 38.492188 40.800781 39.4375 38.753906 38.339844 C 38.320312 38.109375 38.117188 38.136719 37.757812 38.464844 C 36.753906 39.386719 35.117188 39.613281 34.34375 37.757812 C 34.246094 37.519531 34.140625 37.285156 34.046875 37.046875 C 33.925781 36.738281 34.035156 36.488281 34.3125 36.355469 C 34.613281 36.210938 34.894531 36.289062 35.054688 36.601562 C 35.191406 36.859375 35.28125 37.144531 35.417969 37.402344 C 35.746094 38.011719 36.222656 38.113281 36.773438 37.699219 C 37.179688 37.390625 37.410156 36.957031 37.589844 36.484375 C 37.816406 35.890625 38.09375 35.800781 38.722656 36.117188 Z M 38.722656 36.117188 "/>
<path style=" stroke:none;fill-rule:nonzero;fill:rgb(0%,0%,0%);fill-opacity:1;" d="M 19.695312 11.429688 C 18.789062 10.59375 17.917969 9.785156 17.03125 8.988281 C 16.75 8.734375 16.601562 8.460938 16.886719 8.136719 C 17.160156 7.824219 17.464844 7.914062 17.75 8.160156 C 20.074219 10.171875 22.207031 12.355469 23.761719 15.050781 C 23.878906 15.253906 23.988281 15.46875 24.09375 15.683594 C 24.207031 15.914062 24.15625 16.113281 23.953125 16.265625 C 23.742188 16.425781 23.53125 16.386719 23.363281 16.207031 C 23.199219 16.035156 23.054688 15.84375 22.925781 15.644531 C 21.964844 14.164062 20.972656 12.710938 19.695312 11.429688 Z M 19.695312 11.429688 "/>
<path style=" stroke:none;fill-rule:nonzero;fill:rgb(0%,0%,0%);fill-opacity:1;" d="M 58.285156 11.398438 C 59.640625 9.839844 61.117188 8.480469 62.875 7.464844 C 63.164062 7.296875 63.519531 6.902344 63.820312 7.355469 C 64.128906 7.816406 63.632812 7.988281 63.355469 8.175781 C 60.890625 9.828125 58.910156 11.960938 57.226562 14.394531 C 57.105469 14.574219 56.964844 14.742188 56.820312 14.90625 C 56.621094 15.132812 56.382812 15.175781 56.140625 14.988281 C 55.886719 14.796875 55.894531 14.554688 56.0625 14.308594 C 56.75 13.3125 57.464844 12.339844 58.285156 11.398438 Z M 58.285156 11.398438 "/>
</g>
</svg>
