<?xml version="1.0" encoding="UTF-8"?>
<svg xmlns="http://www.w3.org/2000/svg" xmlns:xlink="http://www.w3.org/1999/xlink" width="85px" height="85px" viewBox="0 0 85 85" version="1.1">
<g id="surface1">
<path style=" stroke:none;fill-rule:nonzero;fill:rgb(89.803922%,80.000001%,54.901963%);fill-opacity:1;" d="M 75.304688 18.925781 C 71.234375 16.429688 66.511719 15.066406 61.652344 15.066406 C 47.265625 15.066406 35.5625 26.773438 35.5625 41.160156 C 35.5625 55.546875 47.265625 67.253906 61.652344 67.253906 C 66.273438 67.253906 70.789062 66.011719 74.726562 63.730469 C 69.015625 68.976562 61.53125 72.042969 53.859375 72.042969 C 52.675781 72.042969 51.492188 71.96875 50.320312 71.835938 C 50.53125 71.351562 50.6875 70.859375 50.769531 70.371094 C 51.046875 68.703125 50.472656 67.117188 49.140625 65.898438 C 47.5625 64.453125 45.175781 63.824219 43.195312 64.339844 C 42.449219 64.53125 41.777344 64.953125 41.285156 65.5 C 40.347656 63.503906 38.742188 61.945312 36.753906 61.148438 C 34.625 60.289062 32.328125 60.429688 30.582031 61.449219 C 25.675781 55.824219 22.980469 48.640625 22.980469 41.160156 C 22.980469 24.132812 36.832031 10.277344 53.859375 10.277344 C 62.003906 10.277344 69.621094 13.421875 75.304688 18.925781 Z M 75.304688 18.925781 "/>
<path style=" stroke:none;fill-rule:nonzero;fill:rgb(95.686275%,91.37255%,80.784315%);fill-opacity:1;" d="M 53.859375 9.210938 C 60.929688 9.210938 67.613281 11.503906 73.058594 15.605469 C 66.445312 9.054688 57.449219 5.246094 47.808594 5.246094 C 28.007812 5.246094 11.898438 21.359375 11.898438 41.160156 C 11.898438 48.050781 13.855469 54.722656 17.546875 60.496094 C 17.738281 60.414062 17.933594 60.34375 18.136719 60.28125 C 19.832031 59.773438 21.859375 59.953125 24.328125 60.816406 C 26.148438 61.457031 27.582031 62.355469 28.613281 63.492188 C 28.835938 63.027344 29.140625 62.597656 29.535156 62.230469 C 29.589844 62.175781 29.652344 62.128906 29.710938 62.074219 C 24.679688 56.269531 21.914062 48.863281 21.914062 41.160156 C 21.914062 23.542969 36.246094 9.210938 53.859375 9.210938 Z M 53.859375 9.210938 "/>
<path style=" stroke:none;fill-rule:nonzero;fill:rgb(95.686275%,91.37255%,80.784315%);fill-opacity:1;" d="M 49.789062 72.847656 C 48.964844 74.167969 47.726562 75.332031 46.347656 76.007812 C 46.355469 76.351562 46.324219 76.695312 46.246094 77.035156 C 46.769531 77.054688 47.289062 77.070312 47.808594 77.070312 C 56.8125 77.070312 65.578125 73.367188 72.230469 67.121094 C 66.859375 70.9375 60.425781 73.109375 53.859375 73.109375 C 52.5 73.109375 51.128906 73.015625 49.789062 72.847656 Z M 49.789062 72.847656 "/>
<path style=" stroke:none;fill-rule:nonzero;fill:rgb(45.882353%,39.215687%,60.784316%);fill-opacity:1;" d="M 68.027344 53.339844 C 67.292969 52.023438 65.90625 51.1875 64.3125 51.109375 C 62.886719 51.035156 61.117188 51.460938 60.5625 52.867188 C 60.558594 52.882812 60.554688 52.894531 60.546875 52.910156 C 60.515625 52.992188 60.488281 53.078125 60.464844 53.164062 C 60.335938 53.6875 60.433594 54.277344 60.726562 54.742188 C 60.976562 55.132812 61.347656 55.398438 61.769531 55.484375 C 62.835938 55.695312 63.589844 54.800781 63.910156 53.972656 C 64.015625 53.695312 64.320312 53.558594 64.597656 53.667969 C 64.875 53.773438 65.011719 54.082031 64.902344 54.355469 C 64.398438 55.667969 63.171875 56.851562 61.558594 56.53125 C 60.851562 56.386719 60.234375 55.953125 59.824219 55.3125 C 59.378906 54.605469 59.230469 53.707031 59.429688 52.90625 C 59.441406 52.859375 59.460938 52.816406 59.472656 52.773438 C 58.3125 50.574219 56.652344 49.007812 54.773438 48.347656 C 52.472656 47.542969 49.199219 48.355469 48.179688 50.8125 C 47.984375 51.285156 47.898438 51.738281 47.921875 52.164062 C 48 53.382812 49.117188 54.53125 50.523438 54.835938 C 51.25 54.992188 52.242188 54.945312 52.839844 54.332031 C 53.105469 54.0625 53.25 53.621094 53.207031 53.21875 C 53.1875 53.035156 53.109375 52.707031 52.820312 52.515625 C 52.742188 52.464844 52.597656 52.464844 52.515625 52.492188 C 52.511719 52.746094 52.328125 52.96875 52.070312 53.011719 C 51.777344 53.0625 51.503906 52.867188 51.457031 52.574219 C 51.390625 52.195312 51.550781 51.839844 51.886719 51.621094 C 52.320312 51.335938 52.972656 51.339844 53.40625 51.625 C 53.890625 51.941406 54.199219 52.464844 54.265625 53.101562 C 54.34375 53.824219 54.089844 54.582031 53.601562 55.082031 C 53.027344 55.667969 52.1875 55.980469 51.25 55.980469 C 50.941406 55.980469 50.621094 55.949219 50.292969 55.878906 C 48.675781 55.527344 46.976562 54.160156 46.859375 52.230469 C 46.855469 52.160156 46.851562 52.089844 46.851562 52.019531 C 45.636719 50.058594 42.921875 48.726562 40.734375 48.277344 C 39.867188 48.097656 39.050781 48.058594 38.289062 48.148438 C 41.265625 58.078125 50.414062 65.367188 61.257812 65.542969 C 62.480469 64.953125 63.851562 63.953125 64.078125 62.921875 C 64.449219 61.210938 63.007812 59.792969 61.394531 59.269531 C 60.535156 58.992188 58.964844 59.273438 58.296875 60.035156 C 57.96875 60.414062 57.929688 60.851562 58.183594 61.375 C 58.332031 61.6875 58.628906 61.925781 58.988281 62.027344 C 59.34375 62.125 59.71875 62.074219 60.003906 61.890625 C 60.253906 61.726562 60.582031 61.796875 60.742188 62.046875 C 60.902344 62.292969 60.832031 62.625 60.585938 62.785156 C 60.039062 63.136719 59.351562 63.234375 58.699219 63.050781 C 58.046875 62.871094 57.503906 62.429688 57.222656 61.839844 C 56.78125 60.929688 56.878906 60.039062 57.492188 59.335938 C 58.472656 58.210938 60.507812 57.859375 61.722656 58.253906 C 63.128906 58.710938 64.421875 59.726562 64.949219 61.0625 C 66.199219 60.292969 67.636719 58.984375 68.15625 57.839844 C 68.84375 56.324219 68.796875 54.730469 68.027344 53.339844 Z M 68.027344 53.339844 "/>
<path style=" stroke:none;fill-rule:nonzero;fill:rgb(45.882353%,39.215687%,60.784316%);fill-opacity:1;" d="M 48.421875 66.6875 C 47.097656 65.472656 45.105469 64.945312 43.460938 65.371094 C 42.554688 65.609375 41.808594 66.289062 41.566406 67.101562 C 41.316406 67.945312 41.644531 68.910156 42.332031 69.34375 C 42.757812 69.617188 43.269531 69.667969 43.765625 69.496094 C 44.316406 69.304688 44.761719 68.863281 44.953125 68.316406 C 45.050781 68.039062 45.355469 67.890625 45.632812 67.988281 C 45.914062 68.085938 46.058594 68.390625 45.960938 68.667969 C 45.664062 69.519531 44.972656 70.207031 44.117188 70.503906 C 43.320312 70.78125 42.457031 70.6875 41.757812 70.246094 C 40.664062 69.550781 40.152344 68.105469 40.542969 66.796875 C 40.558594 66.742188 40.578125 66.6875 40.597656 66.632812 C 39.835938 64.527344 38.335938 62.933594 36.359375 62.136719 C 34.152344 61.25 31.761719 61.589844 30.265625 63.003906 C 29.167969 64.042969 28.925781 65.703125 29.6875 66.945312 C 30.15625 67.710938 31.109375 68.3125 32.0625 68.441406 C 32.574219 68.511719 33.304688 68.476562 33.894531 67.925781 C 34.246094 67.597656 34.410156 66.964844 34.261719 66.515625 C 34.1875 66.296875 34.03125 66.117188 33.875 66.074219 C 33.816406 66.054688 33.71875 66.0625 33.652344 66.074219 C 33.636719 66.328125 33.445312 66.539062 33.1875 66.570312 C 32.894531 66.605469 32.625 66.398438 32.589844 66.109375 C 32.550781 65.789062 32.667969 65.488281 32.910156 65.28125 C 33.273438 64.972656 33.820312 64.945312 34.175781 65.050781 C 34.675781 65.195312 35.085938 65.617188 35.273438 66.179688 C 35.554688 67.027344 35.285156 68.089844 34.625 68.707031 C 34.042969 69.246094 33.28125 69.535156 32.441406 69.535156 C 32.269531 69.535156 32.097656 69.523438 31.921875 69.5 C 30.644531 69.324219 29.414062 68.542969 28.777344 67.503906 C 28.257812 66.652344 28.085938 65.660156 28.234375 64.710938 C 27.320312 63.46875 25.886719 62.496094 23.976562 61.824219 C 22.796875 61.410156 21.558594 61.089844 20.300781 61.070312 C 19.074219 61.046875 17.800781 61.351562 16.851562 62.164062 C 15.757812 63.097656 15.242188 64.515625 15.605469 65.949219 C 15.867188 66.988281 16.558594 67.894531 17.449219 68.367188 C 18.363281 68.851562 19.515625 68.871094 20.382812 68.410156 C 21.03125 68.066406 21.632812 67.296875 21.457031 66.546875 C 21.386719 66.234375 21.078125 65.945312 20.703125 65.847656 C 20.546875 65.804688 20.25 65.765625 20.054688 65.980469 C 19.855469 66.199219 19.519531 66.210938 19.300781 66.011719 C 19.082031 65.8125 19.070312 65.476562 19.269531 65.257812 C 19.683594 64.808594 20.320312 64.644531 20.976562 64.816406 C 21.738281 65.015625 22.335938 65.601562 22.5 66.308594 C 22.796875 67.589844 21.910156 68.8125 20.882812 69.355469 C 20.300781 69.660156 19.644531 69.8125 18.980469 69.8125 C 18.285156 69.8125 17.582031 69.648438 16.949219 69.308594 C 16.050781 68.832031 15.316406 68.023438 14.875 67.066406 C 13.007812 66.257812 10.597656 66.035156 8.671875 66.503906 C 6.992188 66.914062 5.054688 68.3125 4.769531 70.425781 C 4.558594 71.992188 5.414062 73.671875 6.808594 74.417969 C 7.820312 74.957031 9.492188 74.960938 10.613281 74.421875 C 11.324219 74.078125 11.746094 73.574219 11.867188 72.921875 C 11.945312 72.5 11.777344 72.085938 11.417969 71.808594 C 11.128906 71.582031 10.644531 71.421875 10.164062 71.644531 C 10.097656 71.675781 10.03125 71.757812 10 71.824219 C 10.167969 71.984375 10.214844 72.246094 10.101562 72.460938 C 9.964844 72.722656 9.640625 72.820312 9.378906 72.683594 C 9.078125 72.519531 8.898438 72.214844 8.910156 71.863281 C 8.921875 71.390625 9.257812 70.894531 9.714844 70.679688 C 10.476562 70.320312 11.382812 70.429688 12.070312 70.964844 C 12.742188 71.484375 13.066406 72.308594 12.917969 73.113281 C 12.734375 74.105469 12.097656 74.890625 11.074219 75.382812 C 10.636719 75.589844 10.144531 75.734375 9.628906 75.816406 C 9.867188 77.003906 10.648438 78.136719 11.785156 78.902344 C 12.890625 79.648438 14.339844 80.074219 15.972656 80.132812 C 17.066406 80.167969 19.078125 80.039062 20.277344 78.714844 C 20.800781 78.136719 21.070312 77.238281 20.957031 76.429688 C 20.875 75.808594 20.578125 75.304688 20.121094 75.019531 C 19.429688 74.582031 18.402344 74.710938 17.835938 75.304688 C 17.636719 75.511719 17.53125 75.738281 17.550781 75.917969 C 17.570312 76.101562 17.734375 76.125 17.804688 76.125 C 18.097656 76.128906 18.335938 76.367188 18.332031 76.664062 C 18.328125 76.957031 18.089844 77.191406 17.800781 77.191406 C 17.796875 77.191406 17.796875 77.191406 17.792969 77.191406 C 17.109375 77.1875 16.558594 76.695312 16.488281 76.03125 C 16.433594 75.53125 16.640625 75.011719 17.0625 74.566406 C 17.976562 73.609375 19.570312 73.410156 20.691406 74.117188 C 21.417969 74.574219 21.886719 75.34375 22.015625 76.285156 C 22.132812 77.125 21.957031 78.007812 21.558594 78.742188 C 23.886719 80.675781 27.71875 80.757812 30.277344 79.8125 C 31.621094 79.3125 32.574219 78.382812 32.824219 77.316406 C 32.996094 76.59375 32.816406 75.78125 32.351562 75.148438 C 31.90625 74.546875 31.257812 74.171875 30.566406 74.121094 C 29.878906 74.070312 29.035156 74.417969 28.613281 74.925781 C 28.351562 75.238281 28.269531 75.582031 28.363281 75.949219 C 28.402344 76.101562 28.523438 76.253906 28.664062 76.324219 C 28.792969 76.394531 28.875 76.363281 28.902344 76.355469 C 29.179688 76.253906 29.484375 76.398438 29.582031 76.675781 C 29.683594 76.953125 29.539062 77.257812 29.261719 77.359375 C 28.90625 77.488281 28.515625 77.453125 28.164062 77.269531 C 27.757812 77.054688 27.449219 76.664062 27.332031 76.21875 C 27.152344 75.519531 27.3125 74.816406 27.792969 74.242188 C 28.4375 73.46875 29.605469 72.980469 30.644531 73.058594 C 31.648438 73.128906 32.582031 73.660156 33.210938 74.515625 C 33.871094 75.410156 34.105469 76.519531 33.863281 77.558594 C 33.796875 77.84375 33.699219 78.113281 33.566406 78.375 C 35.128906 78.949219 37.230469 79.585938 38.761719 79.753906 C 41.324219 80.035156 43.046875 79.664062 44.179688 78.59375 C 44.417969 78.371094 44.617188 78.125 44.777344 77.863281 C 44.777344 77.847656 44.773438 77.828125 44.777344 77.8125 C 44.789062 77.5625 44.914062 77.34375 45.09375 77.199219 C 45.441406 76.210938 45.316406 75.121094 44.667969 74.28125 C 43.664062 72.984375 41.941406 72.46875 40.375 72.996094 C 39.644531 73.246094 38.984375 73.90625 38.84375 74.53125 C 38.757812 74.925781 38.871094 75.265625 39.195312 75.582031 C 39.582031 75.953125 40.234375 76.039062 40.753906 75.789062 C 41.019531 75.660156 41.339844 75.773438 41.46875 76.035156 C 41.597656 76.300781 41.484375 76.621094 41.21875 76.75 C 40.296875 77.195312 39.160156 77.03125 38.457031 76.347656 C 37.867188 75.777344 37.632812 75.050781 37.804688 74.296875 C 38.027344 73.304688 38.941406 72.359375 40.03125 71.988281 C 42.027344 71.3125 44.230469 71.972656 45.511719 73.628906 C 45.8125 74.019531 46.027344 74.449219 46.167969 74.902344 C 47.9375 73.910156 49.421875 71.976562 49.71875 70.191406 C 49.933594 68.894531 49.472656 67.648438 48.421875 66.6875 Z M 48.421875 66.6875 "/>
<path style=" stroke:none;fill-rule:nonzero;fill:rgb(25.490198%,18.039216%,36.862746%);fill-opacity:1;" d="M 80.835938 57.03125 C 80.421875 56.8125 79.902344 56.96875 79.683594 57.386719 C 79.597656 57.546875 79.507812 57.703125 79.417969 57.863281 C 75.222656 62.320312 69.476562 65.039062 63.40625 65.480469 C 64.222656 64.855469 64.917969 64.066406 65.117188 63.148438 C 65.191406 62.808594 65.214844 62.476562 65.195312 62.152344 C 66.664062 61.332031 68.449219 59.777344 69.128906 58.28125 C 69.957031 56.449219 69.898438 54.511719 68.957031 52.824219 C 68.046875 51.183594 66.328125 50.140625 64.367188 50.042969 C 62.871094 49.96875 61.054688 50.375 60.058594 51.632812 C 58.792969 49.53125 57.070312 48.023438 55.125 47.339844 C 52.320312 46.355469 48.460938 47.351562 47.195312 50.402344 C 47.164062 50.46875 47.140625 50.535156 47.117188 50.601562 C 45.574219 48.84375 43.039062 47.664062 40.949219 47.234375 C 39.910156 47.019531 38.921875 46.976562 38.003906 47.109375 C 37.523438 45.207031 37.265625 43.210938 37.265625 41.160156 C 37.265625 27.714844 48.207031 16.773438 61.652344 16.773438 C 68.566406 16.773438 75.179688 19.726562 79.800781 24.871094 C 80.074219 25.175781 80.515625 25.234375 80.855469 25.042969 C 80.859375 25.039062 80.867188 25.039062 80.871094 25.039062 C 81.289062 24.820312 81.453125 24.304688 81.234375 23.886719 C 74.738281 11.335938 61.929688 3.542969 47.808594 3.542969 C 27.066406 3.542969 10.191406 20.417969 10.191406 41.160156 C 10.191406 48.371094 12.230469 55.355469 16.09375 61.398438 C 14.847656 62.492188 14.214844 64.109375 14.480469 65.777344 C 12.558594 65.144531 10.285156 65.011719 8.417969 65.464844 C 5.949219 66.066406 4.015625 68.046875 3.710938 70.28125 C 3.4375 72.304688 4.503906 74.394531 6.304688 75.359375 C 6.933594 75.695312 7.738281 75.867188 8.558594 75.882812 C 8.816406 77.398438 9.777344 78.835938 11.1875 79.785156 C 12.460938 80.644531 14.101562 81.132812 15.933594 81.195312 C 16.058594 81.203125 16.179688 81.203125 16.300781 81.203125 C 18.246094 81.203125 19.863281 80.636719 20.914062 79.589844 C 22.519531 80.902344 24.71875 81.457031 26.832031 81.457031 C 28.203125 81.457031 29.535156 81.226562 30.648438 80.8125 C 31.601562 80.460938 32.386719 79.933594 32.957031 79.285156 C 34.652344 79.925781 36.933594 80.628906 38.644531 80.816406 C 39.148438 80.871094 39.714844 80.914062 40.308594 80.914062 C 41.863281 80.914062 43.601562 80.605469 44.914062 79.371094 C 45.132812 79.164062 45.328125 78.9375 45.5 78.699219 C 45.523438 78.703125 45.550781 78.710938 45.578125 78.714844 C 46.316406 78.757812 47.066406 78.777344 47.808594 78.777344 C 54.71875 78.777344 61.539062 76.757812 67.542969 72.933594 C 73.066406 69.417969 77.632812 64.570312 80.808594 58.878906 C 80.808594 58.875 80.8125 58.875 80.816406 58.871094 C 80.914062 58.765625 80.972656 58.640625 81.011719 58.515625 C 81.070312 58.40625 81.132812 58.296875 81.191406 58.1875 C 81.414062 57.769531 81.253906 57.253906 80.835938 57.03125 Z M 46.527344 76.121094 C 47.832031 75.453125 49.042969 74.339844 49.878906 73.039062 C 51.210938 73.207031 52.550781 73.289062 53.863281 73.289062 C 59.484375 73.289062 65.195312 71.664062 70.1875 68.671875 C 63.761719 73.921875 55.738281 76.890625 47.808594 76.890625 C 47.398438 76.890625 46.96875 76.882812 46.464844 76.863281 C 46.507812 76.617188 46.527344 76.367188 46.527344 76.121094 Z M 53.863281 9.03125 C 36.144531 9.03125 21.730469 23.445312 21.730469 41.160156 C 21.730469 48.828125 24.472656 56.242188 29.457031 62.054688 C 29.441406 62.070312 29.425781 62.085938 29.410156 62.097656 C 29.074219 62.414062 28.792969 62.777344 28.570312 63.183594 C 27.535156 62.109375 26.128906 61.257812 24.390625 60.648438 C 22.816406 60.09375 21.414062 59.820312 20.164062 59.820312 C 19.421875 59.820312 18.730469 59.917969 18.085938 60.109375 C 17.929688 60.15625 17.777344 60.210938 17.621094 60.269531 C 13.996094 54.554688 12.078125 47.953125 12.078125 41.160156 C 12.078125 21.457031 28.109375 5.429688 47.808594 5.429688 C 56.433594 5.429688 64.585938 8.449219 71.035156 13.984375 C 65.917969 10.734375 60.03125 9.03125 53.863281 9.03125 Z M 53.863281 71.863281 C 52.789062 71.863281 51.683594 71.800781 50.578125 71.683594 C 50.753906 71.246094 50.878906 70.8125 50.949219 70.398438 C 51.238281 68.671875 50.640625 67.023438 49.265625 65.765625 C 47.640625 64.28125 45.183594 63.636719 43.148438 64.164062 C 42.472656 64.339844 41.835938 64.699219 41.332031 65.191406 C 40.359375 63.25 38.765625 61.761719 36.824219 60.980469 C 34.726562 60.136719 32.417969 60.226562 30.621094 61.21875 C 25.808594 55.648438 23.160156 48.53125 23.160156 41.160156 C 23.160156 24.230469 36.933594 10.457031 53.859375 10.457031 C 61.34375 10.457031 68.433594 13.113281 74 17.972656 C 70.199219 15.949219 65.964844 14.886719 61.652344 14.886719 C 47.167969 14.886719 35.378906 26.671875 35.378906 41.160156 C 35.378906 55.648438 47.167969 67.433594 61.652344 67.433594 C 65.71875 67.433594 69.746094 66.476562 73.394531 64.652344 C 67.839844 69.25 60.808594 71.863281 53.863281 71.863281 Z M 40.734375 48.277344 C 42.921875 48.726562 45.636719 50.058594 46.851562 52.019531 C 46.851562 52.089844 46.851562 52.160156 46.859375 52.230469 C 46.976562 54.160156 48.675781 55.527344 50.292969 55.878906 C 50.621094 55.949219 50.941406 55.980469 51.25 55.980469 C 52.1875 55.980469 53.027344 55.667969 53.601562 55.082031 C 54.089844 54.582031 54.34375 53.824219 54.265625 53.101562 C 54.199219 52.46875 53.890625 51.941406 53.402344 51.625 C 52.972656 51.339844 52.320312 51.335938 51.886719 51.621094 C 51.550781 51.839844 51.390625 52.195312 51.457031 52.574219 C 51.503906 52.867188 51.777344 53.0625 52.070312 53.011719 C 52.328125 52.96875 52.511719 52.746094 52.515625 52.492188 C 52.597656 52.46875 52.742188 52.464844 52.820312 52.515625 C 53.109375 52.707031 53.1875 53.035156 53.207031 53.21875 C 53.25 53.621094 53.105469 54.0625 52.839844 54.332031 C 52.242188 54.945312 51.25 54.992188 50.523438 54.835938 C 49.113281 54.53125 48 53.382812 47.921875 52.164062 C 47.898438 51.738281 47.984375 51.285156 48.179688 50.8125 C 49.199219 48.355469 52.472656 47.542969 54.773438 48.347656 C 56.652344 49.007812 58.3125 50.574219 59.472656 52.773438 C 59.460938 52.816406 59.441406 52.859375 59.429688 52.90625 C 59.230469 53.707031 59.378906 54.605469 59.824219 55.3125 C 60.234375 55.957031 60.851562 56.386719 61.558594 56.53125 C 63.171875 56.851562 64.398438 55.667969 64.902344 54.355469 C 65.011719 54.082031 64.875 53.773438 64.597656 53.667969 C 64.320312 53.558594 64.015625 53.695312 63.910156 53.972656 C 63.589844 54.804688 62.835938 55.699219 61.769531 55.484375 C 61.347656 55.398438 60.976562 55.132812 60.726562 54.742188 C 60.433594 54.277344 60.335938 53.6875 60.464844 53.164062 C 60.488281 53.078125 60.515625 52.992188 60.546875 52.910156 C 60.554688 52.894531 60.558594 52.882812 60.5625 52.867188 C 61.117188 51.460938 62.886719 51.035156 64.3125 51.109375 C 65.90625 51.1875 67.292969 52.023438 68.027344 53.34375 C 68.796875 54.730469 68.84375 56.324219 68.15625 57.839844 C 67.636719 58.984375 66.199219 60.292969 64.949219 61.0625 C 64.421875 59.726562 63.128906 58.710938 61.722656 58.253906 C 60.507812 57.863281 58.472656 58.210938 57.492188 59.335938 C 56.878906 60.039062 56.78125 60.929688 57.222656 61.839844 C 57.503906 62.429688 58.046875 62.871094 58.699219 63.050781 C 59.351562 63.238281 60.039062 63.136719 60.585938 62.785156 C 60.832031 62.625 60.902344 62.292969 60.742188 62.046875 C 60.582031 61.800781 60.253906 61.730469 60.003906 61.890625 C 59.71875 62.074219 59.34375 62.125 58.988281 62.027344 C 58.628906 61.925781 58.332031 61.6875 58.183594 61.375 C 57.929688 60.855469 57.96875 60.414062 58.296875 60.035156 C 58.964844 59.273438 60.535156 58.992188 61.394531 59.269531 C 63.007812 59.792969 64.449219 61.214844 64.078125 62.921875 C 63.851562 63.953125 62.480469 64.957031 61.257812 65.542969 C 50.414062 65.367188 41.265625 58.078125 38.289062 48.148438 C 39.050781 48.058594 39.867188 48.097656 40.734375 48.277344 Z M 45.511719 73.628906 C 44.230469 71.972656 42.027344 71.3125 40.03125 71.988281 C 38.941406 72.355469 38.027344 73.304688 37.804688 74.296875 C 37.632812 75.050781 37.867188 75.777344 38.457031 76.347656 C 39.160156 77.03125 40.296875 77.195312 41.21875 76.75 C 41.484375 76.621094 41.597656 76.300781 41.46875 76.035156 C 41.339844 75.769531 41.019531 75.660156 40.753906 75.789062 C 40.234375 76.039062 39.582031 75.953125 39.195312 75.582031 C 38.871094 75.265625 38.757812 74.921875 38.84375 74.53125 C 38.984375 73.90625 39.644531 73.246094 40.375 72.996094 C 41.941406 72.46875 43.664062 72.984375 44.667969 74.28125 C 45.316406 75.121094 45.441406 76.210938 45.09375 77.199219 C 44.914062 77.34375 44.789062 77.5625 44.777344 77.8125 C 44.773438 77.828125 44.777344 77.84375 44.777344 77.863281 C 44.617188 78.125 44.417969 78.371094 44.179688 78.59375 C 43.046875 79.664062 41.324219 80.035156 38.761719 79.753906 C 37.230469 79.585938 35.128906 78.949219 33.566406 78.375 C 33.699219 78.113281 33.796875 77.84375 33.863281 77.558594 C 34.105469 76.519531 33.871094 75.410156 33.210938 74.515625 C 32.582031 73.660156 31.648438 73.128906 30.644531 73.058594 C 29.605469 72.980469 28.4375 73.46875 27.792969 74.242188 C 27.3125 74.816406 27.152344 75.519531 27.332031 76.21875 C 27.449219 76.664062 27.757812 77.054688 28.164062 77.269531 C 28.515625 77.453125 28.90625 77.488281 29.261719 77.359375 C 29.539062 77.257812 29.683594 76.953125 29.582031 76.675781 C 29.484375 76.398438 29.179688 76.253906 28.902344 76.355469 C 28.875 76.363281 28.792969 76.394531 28.664062 76.324219 C 28.523438 76.253906 28.402344 76.101562 28.363281 75.949219 C 28.269531 75.582031 28.351562 75.238281 28.613281 74.925781 C 29.035156 74.417969 29.878906 74.070312 30.566406 74.121094 C 31.257812 74.167969 31.90625 74.546875 32.351562 75.148438 C 32.816406 75.78125 32.996094 76.59375 32.824219 77.316406 C 32.574219 78.382812 31.621094 79.3125 30.277344 79.8125 C 27.71875 80.757812 23.886719 80.671875 21.558594 78.742188 C 21.957031 78.007812 22.132812 77.125 22.015625 76.285156 C 21.886719 75.34375 21.417969 74.574219 20.691406 74.117188 C 19.570312 73.410156 17.976562 73.609375 17.0625 74.566406 C 16.640625 75.011719 16.433594 75.53125 16.488281 76.03125 C 16.558594 76.695312 17.109375 77.183594 17.792969 77.191406 C 17.796875 77.191406 17.796875 77.191406 17.800781 77.191406 C 18.089844 77.191406 18.328125 76.957031 18.332031 76.664062 C 18.335938 76.367188 18.097656 76.125 17.804688 76.125 C 17.734375 76.125 17.570312 76.101562 17.550781 75.917969 C 17.53125 75.738281 17.636719 75.511719 17.835938 75.300781 C 18.402344 74.710938 19.429688 74.582031 20.121094 75.019531 C 20.578125 75.304688 20.875 75.808594 20.957031 76.429688 C 21.070312 77.238281 20.800781 78.136719 20.277344 78.714844 C 19.078125 80.035156 17.066406 80.167969 15.972656 80.128906 C 14.339844 80.074219 12.890625 79.648438 11.785156 78.902344 C 10.648438 78.136719 9.867188 77.003906 9.628906 75.816406 C 10.144531 75.734375 10.636719 75.589844 11.074219 75.382812 C 12.097656 74.890625 12.734375 74.105469 12.917969 73.113281 C 13.066406 72.308594 12.742188 71.480469 12.070312 70.964844 C 11.382812 70.429688 10.476562 70.320312 9.714844 70.679688 C 9.257812 70.894531 8.921875 71.390625 8.910156 71.863281 C 8.898438 72.210938 9.078125 72.519531 9.378906 72.683594 C 9.640625 72.820312 9.964844 72.722656 10.101562 72.460938 C 10.214844 72.246094 10.167969 71.984375 10 71.824219 C 10.03125 71.757812 10.097656 71.675781 10.164062 71.644531 C 10.644531 71.421875 11.128906 71.582031 11.417969 71.808594 C 11.777344 72.085938 11.945312 72.5 11.867188 72.917969 C 11.746094 73.574219 11.324219 74.078125 10.613281 74.421875 C 9.492188 74.960938 7.820312 74.957031 6.808594 74.417969 C 5.414062 73.671875 4.558594 71.992188 4.769531 70.421875 C 5.054688 68.3125 6.992188 66.910156 8.671875 66.503906 C 10.597656 66.035156 13.007812 66.257812 14.875 67.066406 C 15.316406 68.023438 16.050781 68.832031 16.949219 69.308594 C 17.582031 69.644531 18.285156 69.8125 18.980469 69.8125 C 19.644531 69.8125 20.300781 69.660156 20.882812 69.355469 C 21.910156 68.8125 22.796875 67.589844 22.5 66.308594 C 22.335938 65.601562 21.738281 65.015625 20.976562 64.816406 C 20.320312 64.644531 19.683594 64.808594 19.269531 65.257812 C 19.070312 65.472656 19.082031 65.8125 19.300781 66.011719 C 19.519531 66.210938 19.855469 66.199219 20.054688 65.980469 C 20.25 65.765625 20.546875 65.804688 20.703125 65.847656 C 21.078125 65.945312 21.386719 66.234375 21.457031 66.546875 C 21.632812 67.296875 21.03125 68.066406 20.382812 68.410156 C 19.515625 68.871094 18.363281 68.851562 17.449219 68.367188 C 16.558594 67.894531 15.871094 66.988281 15.605469 65.949219 C 15.242188 64.515625 15.757812 63.09375 16.851562 62.164062 C 17.800781 61.351562 19.074219 61.046875 20.300781 61.066406 C 21.558594 61.089844 22.796875 61.410156 23.976562 61.824219 C 25.886719 62.496094 27.320312 63.46875 28.234375 64.710938 C 28.085938 65.660156 28.257812 66.652344 28.777344 67.503906 C 29.414062 68.542969 30.644531 69.324219 31.921875 69.5 C 32.097656 69.523438 32.269531 69.535156 32.441406 69.535156 C 33.28125 69.535156 34.042969 69.246094 34.625 68.707031 C 35.285156 68.089844 35.554688 67.027344 35.273438 66.179688 C 35.085938 65.617188 34.675781 65.195312 34.175781 65.046875 C 33.820312 64.945312 33.273438 64.972656 32.910156 65.28125 C 32.667969 65.488281 32.550781 65.789062 32.589844 66.105469 C 32.625 66.398438 32.894531 66.605469 33.1875 66.570312 C 33.445312 66.539062 33.636719 66.328125 33.652344 66.074219 C 33.71875 66.058594 33.816406 66.054688 33.875 66.074219 C 34.03125 66.117188 34.1875 66.296875 34.261719 66.515625 C 34.410156 66.964844 34.246094 67.597656 33.894531 67.925781 C 33.304688 68.476562 32.574219 68.511719 32.0625 68.441406 C 31.109375 68.3125 30.15625 67.710938 29.6875 66.945312 C 28.925781 65.703125 29.167969 64.042969 30.265625 63.003906 C 31.761719 61.589844 34.152344 61.25 36.359375 62.136719 C 38.335938 62.933594 39.835938 64.527344 40.597656 66.632812 C 40.578125 66.6875 40.558594 66.742188 40.542969 66.796875 C 40.152344 68.105469 40.664062 69.550781 41.757812 70.246094 C 42.457031 70.6875 43.320312 70.78125 44.117188 70.503906 C 44.972656 70.207031 45.664062 69.519531 45.960938 68.667969 C 46.058594 68.390625 45.914062 68.085938 45.632812 67.988281 C 45.355469 67.890625 45.050781 68.039062 44.953125 68.316406 C 44.761719 68.863281 44.316406 69.304688 43.765625 69.496094 C 43.269531 69.667969 42.757812 69.617188 42.332031 69.34375 C 41.644531 68.910156 41.316406 67.945312 41.566406 67.101562 C 41.808594 66.289062 42.554688 65.609375 43.460938 65.371094 C 45.105469 64.945312 47.097656 65.472656 48.421875 66.6875 C 49.472656 67.648438 49.933594 68.894531 49.71875 70.191406 C 49.421875 71.976562 47.9375 73.910156 46.167969 74.898438 C 46.027344 74.449219 45.8125 74.019531 45.511719 73.628906 Z M 45.511719 73.628906 "/>
</g>
</svg>
